<?xml version="1.0" standalone="no"?>
<!DOCTYPE svg PUBLIC "-//W3C//DTD SVG 20010904//EN"
 "http://www.w3.org/TR/2001/REC-SVG-20010904/DTD/svg10.dtd">
<svg version="1.0" xmlns="http://www.w3.org/2000/svg"
 width="185" height="185" viewBox="0 0 871.000000 764.000000"
 preserveAspectRatio="xMidYMid meet">
<metadata>
Created by potrace 1.16, written by Peter Selinger 2001-2019
</metadata>
<g transform="translate(0.000000,764.000000) scale(0.100000,-0.100000)"
fill="#000000" stroke="none">
<path d="M5538 7633 c7 -3 16 -2 19 1 4 3 -2 6 -13 5 -11 0 -14 -3 -6 -6z"/>
<path d="M6525 7633 c-32 -8 -45 -23 -45 -53 0 -36 10 -43 31 -24 10 9 25 14
33 11 9 -4 22 3 30 15 8 11 28 29 43 39 l28 19 -50 -1 c-27 -1 -59 -4 -70 -6z"/>
<path d="M6708 7633 c15 -6 16 -25 1 -40 -8 -8 -19 -8 -40 0 -22 9 -32 8 -41
-2 -10 -11 -10 -14 0 -18 18 -7 15 -33 -5 -33 -9 0 -14 -3 -10 -6 3 -4 14 -3
24 1 10 5 26 7 36 6 9 -1 17 2 17 8 0 6 12 22 27 35 28 27 54 28 140 6 24 -6
30 -5 27 4 -3 8 11 19 33 28 37 16 35 16 -92 16 -71 0 -124 -2 -117 -5z"/>
<path d="M5416 7603 c-11 -11 -6 -23 8 -23 8 0 17 4 20 9 7 10 -19 23 -28 14z"/>
<path d="M6726 7545 c4 -8 8 -15 10 -15 2 0 4 7 4 15 0 8 -4 15 -10 15 -5 0
-7 -7 -4 -15z"/>
<path d="M6860 7480 c0 -13 20 -13 40 0 12 8 9 10 -12 10 -16 0 -28 -4 -28
-10z"/>
<path d="M185 7210 c-3 -5 1 -13 10 -16 22 -9 29 1 11 15 -10 8 -16 9 -21 1z"/>
<path d="M640 7040 c0 -5 5 -10 10 -10 6 0 10 5 10 10 0 6 -4 10 -10 10 -5 0
-10 -4 -10 -10z"/>
<path d="M2 6911 c0 -75 1 -83 24 -97 33 -22 32 -48 -1 -40 -24 6 -25 4 -25
-39 0 -41 2 -45 24 -45 13 0 27 -7 30 -16 4 -9 13 -14 21 -10 9 3 40 -6 69
-21 53 -25 55 -26 89 -10 19 10 39 17 45 17 5 0 15 7 22 15 7 8 16 12 21 9 17
-10 130 -13 127 -3 -4 11 -41 34 -72 43 -14 5 -16 9 -6 21 10 12 18 10 55 -11
50 -27 80 -31 88 -10 5 11 -5 17 -39 22 -37 5 -44 10 -44 28 0 25 41 53 59 42
6 -4 14 -1 17 7 5 15 10 16 84 18 44 1 51 5 68 33 17 29 23 32 63 30 24 -1 48
0 52 3 12 7 -33 29 -76 37 -21 4 -37 10 -37 14 0 11 -61 32 -91 32 -14 0 -36
-10 -49 -22 -14 -13 -34 -21 -46 -20 -12 2 -26 -3 -31 -11 -4 -8 -19 -17 -33
-19 -19 -2 -26 -10 -28 -30 -3 -24 -7 -28 -35 -25 -24 1 -34 -3 -43 -21 -6
-13 -33 -45 -59 -71 -45 -45 -50 -47 -72 -36 -14 7 -31 22 -39 34 -9 12 -24
21 -35 21 -24 0 -27 47 -3 64 13 10 9 17 -31 45 -47 34 -48 50 -1 51 15 0 16
2 6 15 -7 9 -18 14 -24 12 -6 -3 -19 2 -28 10 -15 14 -16 8 -16 -66z m638 -41
c0 -5 -6 -10 -14 -10 -8 0 -18 5 -21 10 -3 6 3 10 14 10 12 0 21 -4 21 -10z"/>
<path d="M7095 6950 c3 -5 12 -10 20 -10 8 0 17 5 20 10 4 6 -5 10 -20 10 -15
0 -24 -4 -20 -10z"/>
<path d="M7038 6943 c7 -3 16 -2 19 1 4 3 -2 6 -13 5 -11 0 -14 -3 -6 -6z"/>
<path d="M6888 6923 c7 -3 16 -2 19 1 4 3 -2 6 -13 5 -11 0 -14 -3 -6 -6z"/>
<path d="M6660 6860 c-8 -5 -12 -12 -9 -15 8 -8 39 5 39 16 0 11 -11 11 -30
-1z"/>
<path d="M653 6803 c-15 -5 -18 -33 -4 -33 17 0 41 12 41 20 0 11 -22 18 -37
13z"/>
<path d="M4722 6785 c0 -16 2 -22 5 -12 2 9 2 23 0 30 -3 6 -5 -1 -5 -18z"/>
<path d="M1023 6704 c-3 -8 -1 -20 6 -27 8 -8 11 -8 11 1 0 7 7 12 15 12 20 0
19 16 -1 24 -22 8 -24 8 -31 -10z"/>
<path d="M610 6700 c0 -5 7 -10 15 -10 8 0 15 5 15 10 0 6 -7 10 -15 10 -8 0
-15 -4 -15 -10z"/>
<path d="M6460 6690 c-9 -6 -6 -10 10 -15 12 -4 26 -3 32 3 12 12 -25 23 -42
12z"/>
<path d="M736 6655 c-16 -12 -17 -18 -8 -27 10 -10 17 -10 31 -1 10 7 29 9 42
6 21 -5 22 -4 9 10 -23 23 -53 28 -74 12z"/>
<path d="M980 6624 c0 -11 33 -54 42 -54 5 0 6 6 1 13 -4 6 -8 18 -8 26 0 12
-35 27 -35 15z"/>
<path d="M4190 6594 c0 -8 5 -12 10 -9 6 4 8 11 5 16 -9 14 -15 11 -15 -7z"/>
<path d="M1066 6584 c-8 -21 11 -44 36 -44 15 0 18 4 12 23 -11 36 -38 48 -48
21z"/>
<path d="M183 6583 c9 -2 23 -2 30 0 6 3 -1 5 -18 5 -16 0 -22 -2 -12 -5z"/>
<path d="M6490 6563 c0 -25 1 -26 16 -11 9 9 13 21 10 27 -13 20 -26 11 -26
-16z"/>
<path d="M607 6540 c-15 -33 -24 -40 -47 -40 -23 0 -27 -4 -27 -25 0 -26 12
-34 20 -12 3 9 9 7 24 -5 11 -10 24 -18 29 -18 6 0 20 -11 32 -24 11 -14 37
-28 57 -32 19 -3 38 -10 41 -15 3 -5 13 -9 23 -9 22 0 55 -35 46 -49 -4 -7 0
-8 10 -5 10 4 14 13 10 23 -26 66 -17 82 47 85 28 1 36 -4 50 -34 15 -29 16
-37 4 -55 -8 -11 -27 -21 -45 -23 l-32 -3 22 -20 c12 -10 17 -19 11 -19 -7 0
-12 -4 -12 -10 0 -5 8 -10 17 -10 10 0 0 -9 -20 -19 -28 -14 -46 -17 -67 -11
-16 4 -31 6 -34 3 -3 -3 -10 6 -17 19 -16 36 -49 26 -49 -13 0 -16 -4 -29 -10
-29 -5 0 -10 7 -10 15 0 17 -46 39 -61 29 -5 -3 -9 -12 -9 -20 0 -8 -7 -14
-15 -14 -11 0 -15 8 -12 28 3 22 9 27 30 27 19 -1 27 5 30 23 5 28 -23 62 -50
62 -10 0 -27 7 -37 15 -11 8 -29 15 -40 15 -20 -1 -20 -2 -3 -14 9 -7 17 -16
17 -20 0 -4 7 -14 15 -22 8 -9 15 -24 15 -34 0 -10 -7 -20 -15 -24 -23 -8 -18
-30 14 -67 26 -30 32 -32 53 -21 30 15 107 10 118 -8 7 -12 13 -11 32 7 19 18
31 20 71 16 29 -4 47 -2 47 5 0 7 9 7 29 -1 16 -6 29 -13 29 -16 -1 -4 2 -14
7 -25 5 -12 3 -21 -6 -27 -22 -14 -29 -11 -29 11 0 17 -4 19 -27 14 -51 -12
-64 -23 -54 -43 8 -15 5 -20 -16 -30 -14 -6 -34 -9 -44 -6 -13 4 -19 2 -19 -8
0 -8 -6 -17 -13 -20 -8 -3 -12 3 -12 17 0 11 -4 22 -10 23 -5 2 -10 -5 -10
-15 0 -12 -9 -17 -33 -18 -33 -1 -45 19 -17 30 22 8 18 19 -10 32 -30 14 -88
3 -115 -21 -10 -9 -24 -14 -29 -10 -18 10 -12 44 9 57 21 13 26 33 11 42 -12
8 -42 -4 -36 -13 2 -4 0 -21 -5 -37 -6 -21 -9 -24 -10 -9 0 15 -4 11 -15 -14
-17 -39 -11 -54 17 -45 13 4 26 -1 41 -16 l20 -23 -29 5 c-16 3 -37 8 -46 12
-11 5 -23 1 -34 -13 -13 -15 -22 -18 -36 -10 -10 5 -18 16 -18 24 0 18 -21 20
-38 3 -13 -13 -16 -3 -13 33 3 24 -23 30 -49 12 -14 -10 -20 -22 -17 -34 3
-12 0 -19 -9 -19 -8 0 -14 -4 -14 -9 0 -6 19 -9 42 -8 34 2 43 -2 46 -17 3
-16 -1 -17 -40 -11 -23 4 -55 9 -69 10 -15 1 -40 11 -57 23 -29 21 -30 21 -25
2 7 -27 -15 -26 -38 2 -11 11 -19 16 -19 10 0 -7 -12 -12 -26 -12 -19 0 -25
-4 -20 -15 3 -9 0 -15 -9 -15 -11 0 -15 -12 -15 -44 0 -39 3 -45 23 -48 16 -2
22 -10 22 -28 0 -20 -5 -25 -22 -23 -21 3 -23 -1 -23 -47 0 -47 1 -50 19 -40
24 12 41 13 41 1 0 -5 -14 -12 -30 -16 l-31 -7 2 -449 c0 -256 5 -451 10 -455
5 -3 9 -16 9 -29 0 -17 8 -26 30 -34 17 -5 30 -17 30 -26 0 -9 7 -16 17 -14
41 4 63 -2 82 -22 l19 -21 16 29 c11 23 12 33 3 42 -8 8 -8 11 1 11 6 0 16 -9
22 -19 8 -17 18 -19 67 -15 93 8 124 14 118 25 -4 6 -39 7 -85 4 l-79 -5 -20
34 c-14 21 -42 44 -76 61 -30 14 -55 31 -55 36 0 15 17 10 24 -6 7 -20 32 -19
40 1 9 22 8 24 -10 24 -14 0 -14 1 0 16 19 18 20 26 5 41 -17 17 -21 96 -4 89
7 -2 16 3 20 12 5 13 9 11 25 -13 14 -21 31 -32 57 -37 21 -4 52 -10 68 -13
26 -5 32 -2 42 21 10 22 10 29 0 36 -25 16 -38 3 -16 -19 7 -7 1 -10 -20 -9
-17 1 -30 6 -29 11 1 6 -6 22 -16 37 -20 31 -15 63 9 54 8 -3 15 -1 15 3 0 5
-6 12 -12 14 -8 4 -7 6 4 6 9 1 19 -5 21 -11 4 -10 8 -9 16 2 6 8 16 15 22 15
7 0 14 5 16 10 4 13 -55 36 -62 25 -11 -17 -43 3 -48 30 -7 33 12 80 32 80 8
0 12 3 8 6 -3 3 -2 17 3 30 5 13 6 23 2 22 -15 -3 -67 16 -81 30 -13 13 -12
16 4 28 10 8 27 12 36 9 13 -4 18 1 21 17 2 15 9 22 21 22 19 -2 22 7 6 23
-11 11 18 25 76 38 l30 6 -38 -36 c-21 -19 -35 -40 -31 -46 4 -6 10 -7 18 0
20 17 94 -38 107 -81 16 -49 32 -53 86 -23 56 31 63 31 63 3 -1 -25 -42 -78
-60 -78 -24 0 3 -20 35 -26 19 -3 33 -10 30 -14 -5 -8 25 -22 41 -19 5 1 11 0
14 -1 3 -1 25 -3 50 -5 25 -1 53 -6 63 -10 10 -4 17 -3 17 4 0 14 -27 70 -44
91 -7 8 -18 34 -26 57 -7 23 -19 44 -26 47 -8 3 -14 14 -14 25 0 38 11 51 45
51 18 0 35 6 38 13 4 10 7 10 18 0 20 -19 49 -16 49 5 0 15 -6 17 -35 14 -33
-4 -50 11 -22 21 6 2 -3 11 -20 21 -36 18 -44 46 -15 46 25 0 62 41 62 68 0
12 5 22 11 22 6 0 8 9 4 20 -4 13 -2 20 7 20 7 0 24 21 38 48 22 42 29 47 60
48 19 0 48 6 63 12 37 16 40 15 70 -9 22 -16 30 -18 48 -8 20 10 21 17 17 81
-5 67 -5 70 20 79 35 13 59 3 71 -32 13 -38 116 -175 138 -183 9 -4 14 -9 11
-12 -3 -2 -19 3 -36 13 -34 20 -49 14 -34 -13 5 -10 6 -25 2 -33 -8 -17 -24
-90 -44 -206 -7 -38 -23 -93 -36 -122 -20 -43 -27 -50 -42 -42 -16 9 -17 5
-12 -35 6 -43 5 -45 -22 -52 -16 -3 -45 -13 -65 -21 -35 -15 -36 -17 -26 -49
16 -52 64 -92 117 -98 89 -10 176 -24 205 -33 30 -10 55 -7 65 7 6 9 110 41
110 34 0 -2 -7 -21 -16 -42 -17 -41 -18 -194 -1 -272 13 -61 46 -147 72 -190
12 -19 24 -42 27 -50 3 -8 23 -24 44 -35 44 -22 107 -81 117 -108 4 -9 19 -22
34 -27 41 -15 76 -33 91 -47 7 -7 22 -13 33 -13 10 0 19 -4 19 -10 0 -5 7 -10
15 -10 8 0 23 -9 33 -21 9 -11 41 -36 70 -55 46 -30 51 -37 42 -54 -6 -10 -16
-23 -23 -27 -37 -23 -81 -178 -70 -247 6 -36 -1 -43 -26 -27 -11 7 -12 26 -7
93 6 77 5 89 -16 128 -28 51 -39 57 -72 35 -21 -14 -26 -25 -26 -60 0 -24 -5
-56 -10 -71 -16 -41 -23 -134 -10 -134 5 0 10 10 10 23 0 34 11 67 20 62 5 -3
6 -20 4 -38 -4 -19 1 -44 10 -62 23 -44 21 -65 -9 -65 -18 0 -26 7 -31 25 -10
42 -21 28 -27 -36 -5 -57 -2 -72 25 -119 4 -8 11 -22 14 -30 15 -39 23 -45 66
-47 29 -1 61 -12 91 -30 41 -25 47 -33 57 -83 6 -30 14 -74 17 -97 3 -24 10
-43 16 -43 8 0 7 -4 -1 -12 -6 -6 -39 -11 -73 -11 -54 0 -59 -2 -43 -14 17
-12 51 -18 83 -13 7 1 25 -1 39 -5 19 -5 22 -9 13 -18 -6 -6 -11 -19 -11 -29
0 -26 -15 -22 -28 7 -14 30 -42 33 -49 5 -7 -26 -25 -26 -41 0 -7 11 -19 20
-28 20 -12 0 -14 -7 -9 -32 9 -42 13 -48 30 -48 22 0 30 -39 27 -142 l-2 -98
37 -56 c28 -42 49 -62 81 -75 48 -21 113 -25 143 -9 17 10 19 7 19 -23 0 -51
54 -150 98 -181 21 -14 43 -26 50 -26 7 0 12 -13 12 -28 0 -23 4 -28 24 -27
13 0 27 3 31 7 4 4 20 5 35 2 17 -4 32 0 43 10 8 9 20 16 25 16 6 0 12 5 14
12 2 6 12 9 21 5 33 -13 15 -110 -22 -122 -30 -9 -26 -28 4 -23 16 3 29 0 33
-9 6 -11 11 -8 22 12 7 14 17 25 21 25 9 0 -1 -41 -14 -58 -6 -8 -5 -17 3 -27
18 -22 30 -18 30 8 0 12 7 33 16 45 8 12 14 30 12 40 -3 20 9 42 23 42 5 0 9
-9 9 -20 0 -10 9 -24 20 -30 l21 -11 -21 -35 c-16 -25 -18 -34 -8 -34 7 0 18
-10 23 -22 6 -13 16 -22 23 -21 7 2 12 -2 12 -8 0 -6 7 -8 16 -5 10 4 18 0 21
-13 3 -11 15 -22 26 -25 22 -6 22 -6 2 -22 -19 -16 -19 -16 13 -12 18 3 35 1
38 -4 3 -4 12 -8 20 -8 11 0 13 6 9 20 -5 14 -2 20 9 20 9 0 15 3 15 8 -4 22
4 31 26 29 13 -1 23 -6 22 -12 -1 -5 -8 -9 -14 -9 -7 1 -13 -5 -13 -13 0 -9 6
-13 15 -9 8 3 15 2 15 -2 0 -5 -11 -12 -25 -18 -24 -9 -25 -10 -10 -37 17 -33
8 -48 -35 -62 -22 -7 -23 -6 -12 8 9 11 10 17 2 22 -6 4 -9 13 -6 21 3 8 1 14
-3 14 -11 0 -21 -25 -21 -55 0 -13 -4 -27 -10 -30 -14 -9 -13 -35 2 -35 6 0 8
3 5 6 -3 4 -2 14 3 24 6 12 18 15 39 12 17 -2 31 -7 31 -11 0 -4 -35 -44 -77
-90 -43 -45 -98 -109 -123 -142 -25 -33 -82 -106 -128 -162 -76 -93 -97 -125
-154 -239 -10 -21 -32 -48 -49 -60 -18 -13 -57 -58 -88 -100 l-57 -77 -32 62
c-37 73 -82 222 -82 273 0 39 15 101 35 149 21 48 28 93 45 290 9 112 15 150
38 250 6 22 17 73 26 113 9 40 21 82 26 93 8 13 7 25 -1 40 -9 18 -16 20 -57
14 -26 -4 -50 -9 -54 -11 -20 -13 -98 -343 -98 -415 0 -65 -46 -279 -61 -279
-20 0 -109 258 -113 329 -3 63 -82 110 -138 80 -17 -9 -19 -17 -13 -47 4 -21
16 -57 27 -82 11 -25 28 -78 39 -118 19 -71 91 -265 129 -348 10 -23 16 -45
12 -49 -4 -4 -7 -15 -7 -26 0 -10 -3 -19 -7 -19 -48 -1 -58 2 -58 16 0 13 -7
15 -42 9 -24 -4 -62 -13 -86 -21 -23 -8 -53 -14 -67 -14 -13 0 -36 -7 -52 -15
-15 -8 -53 -21 -83 -29 -30 -8 -74 -19 -98 -26 -23 -6 -80 -14 -126 -17 -78
-5 -85 -4 -122 21 -21 14 -44 26 -50 26 -12 0 -39 80 -49 148 -6 36 -3 49 19
83 15 21 32 39 39 39 6 0 25 10 40 23 25 20 27 25 18 50 -9 23 -15 27 -38 22
-36 -8 -127 -48 -131 -57 -2 -5 -9 -8 -16 -8 -8 0 -34 -22 -59 -48 l-45 -49
-7 -109 c-9 -121 4 -219 35 -269 20 -32 92 -75 126 -75 10 0 25 -4 32 -9 24
-15 -77 -46 -144 -44 l-62 2 12 -24 c9 -19 13 -21 19 -9 13 23 37 17 37 -11 0
-14 5 -25 11 -25 6 0 9 -7 5 -15 -3 -10 1 -15 13 -15 11 0 21 -6 24 -12 4 -10
7 -10 18 0 19 18 34 15 18 -4 -11 -14 -10 -19 7 -33 11 -9 23 -24 27 -33 3
-10 12 -18 20 -18 7 0 31 -8 52 -19 37 -18 37 -18 16 -33 -18 -13 -19 -17 -7
-21 9 -4 15 -1 13 6 -1 7 10 13 26 15 15 2 27 -1 27 -7 0 -6 16 -11 35 -11 19
0 35 -4 35 -10 0 -17 41 -33 53 -21 8 8 6 11 -6 11 -9 0 -17 4 -17 9 0 5 10 7
22 3 14 -3 19 -1 14 6 -4 8 -2 10 8 6 18 -7 114 34 125 54 7 13 11 10 23 -14
17 -33 14 -55 -8 -47 -8 3 -14 -1 -14 -11 0 -11 9 -16 30 -16 30 0 40 14 18
24 -7 3 -2 5 12 5 44 -2 50 0 43 18 -5 14 -3 15 6 7 10 -9 10 -17 1 -34 -9
-18 -9 -28 0 -45 10 -19 10 -27 -4 -46 -20 -29 -20 -39 -1 -39 8 0 15 -7 15
-15 0 -27 -27 -83 -45 -93 -15 -8 -13 -13 19 -37 34 -26 38 -27 54 -11 18 16
122 22 122 6 0 -4 -20 -38 -45 -75 -25 -38 -47 -77 -51 -87 -3 -10 -9 -18 -14
-18 -5 0 -17 -15 -26 -32 -9 -18 -33 -58 -53 -88 -20 -30 -54 -91 -75 -135
-22 -44 -50 -94 -63 -112 -12 -17 -23 -36 -23 -42 0 -5 -10 -17 -22 -25 -20
-15 111 -16 1417 -16 1423 0 1440 0 1453 20 7 11 18 17 27 14 10 -4 15 0 15
10 0 9 -7 16 -15 16 -8 0 -15 4 -15 9 0 5 -3 16 -6 25 -4 10 -1 16 9 16 8 0
17 7 20 14 4 10 1 13 -9 9 -7 -3 -14 -1 -14 5 0 15 32 20 111 15 105 -6 117
-10 134 -43 14 -27 14 -32 1 -45 -8 -8 -20 -15 -26 -15 -7 0 -9 -7 -6 -16 3
-9 6 -20 6 -24 0 -5 217 -9 494 -10 l493 0 -5 25 c-2 14 -8 25 -13 25 -5 0 -9
14 -9 31 0 24 -4 30 -15 25 -10 -3 -18 1 -22 11 -4 9 -1 19 5 21 7 2 12 10 12
18 0 7 -6 11 -14 8 -11 -4 -13 0 -9 16 3 12 0 32 -7 45 -11 21 -15 22 -27 9
-18 -18 -34 -18 -27 -1 3 8 -2 20 -11 27 -8 7 -15 9 -15 5 0 -5 -9 0 -19 9
-11 10 -25 15 -30 11 -7 -3 -11 2 -11 14 0 21 11 27 24 14 3 -4 12 -8 19 -9 7
-1 19 -5 28 -9 26 -10 32 11 12 41 -17 26 -17 26 -30 7 -12 -18 -18 -19 -53
-9 -22 5 -40 16 -40 23 0 7 -4 13 -10 13 -5 0 -10 5 -10 10 0 6 11 8 25 4 23
-6 25 -3 25 25 0 31 -1 32 -22 17 -23 -17 -48 -6 -48 20 0 8 -5 14 -10 14 -6
0 -9 -5 -8 -11 2 -6 -2 -13 -8 -16 -13 -4 -34 47 -34 84 0 13 -6 34 -14 46 -8
12 -20 49 -27 82 -7 33 -19 70 -26 82 -9 13 -10 23 -4 27 5 4 1 23 -10 46 -11
22 -19 46 -18 53 1 7 0 19 -3 27 -15 40 -30 130 -25 145 4 9 0 26 -8 38 -17
27 -8 72 15 72 18 0 26 41 11 59 -6 6 -8 22 -4 34 4 16 0 28 -13 37 -18 15
-18 15 -1 29 18 14 23 50 15 101 -2 13 5 23 20 30 28 12 28 20 0 39 -23 16
-25 14 28 31 15 5 15 7 -2 26 -15 17 -16 22 -4 29 9 6 14 21 12 38 -4 33 31
82 58 82 19 0 63 17 148 56 39 19 57 22 71 15 21 -12 34 -60 20 -77 -7 -8 -2
-14 16 -18 14 -4 25 -11 25 -17 0 -6 -6 -7 -12 -3 -7 4 -4 -2 6 -15 11 -12 26
-19 33 -17 9 4 12 -1 9 -18 -4 -20 5 -31 50 -61 51 -35 71 -68 80 -130 0 -5 3
-17 6 -25 4 -8 16 -46 27 -85 27 -88 31 -129 12 -130 -27 0 -22 -23 7 -36 37
-16 58 -47 43 -62 -16 -16 -13 -30 4 -24 8 4 17 2 20 -3 4 -6 -1 -10 -9 -10
-10 0 -16 -9 -16 -25 0 -16 -6 -25 -16 -25 -11 0 -14 -6 -9 -20 4 -11 2 -20
-4 -20 -6 0 -11 -7 -11 -15 0 -8 6 -15 14 -15 19 0 86 -66 86 -85 0 -18 -4
-19 -30 -3 -15 10 -22 9 -38 -5 -10 -9 -22 -14 -26 -10 -7 7 3 -47 10 -56 2
-2 10 2 18 8 9 8 16 8 20 2 4 -5 2 -12 -4 -16 -5 -3 -10 -14 -10 -23 0 -14 -7
-17 -40 -14 -25 3 -40 0 -40 -7 0 -10 21 -16 43 -12 15 2 20 -31 6 -40 -12 -8
-12 -11 1 -22 12 -9 14 -22 9 -50 -5 -34 -3 -41 22 -60 35 -25 38 -58 7 -72
-37 -16 -34 -42 4 -47 18 -3 42 -9 52 -13 16 -7 18 -5 14 13 -4 12 -3 22 2 22
4 0 10 -10 13 -22 7 -25 -27 -66 -39 -47 -5 8 -9 8 -14 -1 -6 -9 -13 -9 -29
-1 -11 7 -21 16 -21 21 0 6 -7 10 -15 10 -25 0 -17 -13 26 -45 23 -17 35 -31
27 -34 -7 -2 -20 -14 -29 -25 -15 -17 -20 -19 -31 -8 -11 11 -10 16 5 26 16
13 15 14 -9 19 -31 5 -64 -2 -64 -14 0 -5 9 -9 20 -9 11 0 20 -5 20 -11 0 -8
-14 -10 -42 -6 -24 2 -37 3 -30 0 6 -3 12 -9 12 -14 0 -4 -7 -6 -15 -3 -8 4
-15 3 -15 0 0 -12 69 -34 89 -29 17 4 21 1 21 -17 0 -16 -4 -20 -15 -16 -11 4
-15 -2 -15 -23 0 -26 -6 -31 -50 -47 l-51 -18 3 -43 2 -43 74 0 c40 0 82 5 92
10 13 7 21 7 25 0 4 -6 133 -10 356 -10 367 0 356 -1 363 42 3 24 17 38 37 38
26 0 35 26 19 55 -11 20 -10 26 4 40 14 14 14 18 2 31 -8 8 -22 14 -30 14 -9
0 -16 8 -16 20 0 13 7 20 20 20 22 0 27 15 9 26 -6 3 -8 17 -5 29 3 13 2 27
-4 30 -17 10 -11 33 10 40 24 8 25 22 3 47 -15 17 -15 18 5 18 12 0 26 -9 32
-19 5 -11 26 -25 45 -31 30 -10 40 -9 60 4 13 9 45 16 70 16 42 0 61 13 33 23
-10 3 -10 7 1 20 8 10 11 27 7 41 -6 23 -2 26 33 36 42 11 294 15 311 5 5 -3
36 -1 67 6 50 10 63 10 91 -5 17 -9 32 -23 32 -30 0 -16 77 -76 97 -76 15 0
18 -46 3 -55 -5 -3 -10 -17 -10 -31 0 -17 -8 -27 -26 -34 -14 -6 -37 -24 -51
-41 -15 -17 -37 -35 -50 -40 -14 -5 -23 -17 -23 -29 0 -11 -4 -20 -9 -20 -5 0
-11 -9 -13 -20 -6 -39 -23 -15 -20 28 2 33 -3 49 -24 78 -35 45 -72 60 -158
63 -38 1 -78 7 -88 12 -14 7 -34 7 -67 -2 -41 -10 -51 -18 -70 -53 -34 -66
-52 -125 -65 -214 l-13 -82 109 0 109 0 -15 22 c-17 24 -22 68 -7 68 4 0 14
20 21 44 12 44 52 77 65 56 4 -6 17 -10 30 -10 17 0 29 -9 40 -29 8 -16 20
-31 27 -34 9 -3 8 -9 -6 -19 -12 -10 -17 -21 -13 -32 4 -9 -1 -28 -10 -42
l-16 -25 369 2 c328 1 370 3 381 18 12 15 14 15 27 -2 12 -16 34 -17 257 -15
216 3 240 5 212 16 -18 8 -33 18 -33 23 0 5 -18 9 -40 9 -29 0 -40 4 -40 15 0
8 -9 15 -20 15 -21 0 -25 8 -12 25 10 15 38 12 34 -3 -1 -7 9 -12 24 -12 19 0
25 4 20 15 -4 12 3 15 35 15 22 0 38 -4 35 -9 -3 -5 3 -11 14 -14 11 -3 20 -1
20 4 0 5 12 6 27 3 21 -6 25 -4 20 9 -7 18 13 28 42 20 18 -5 21 -1 21 31 0
42 11 46 38 11 14 -17 22 -21 25 -13 3 11 9 11 26 0 l21 -12 0 169 c0 126 -3
170 -13 174 -9 3 -9 9 1 27 16 27 10 35 -16 21 -12 -6 -31 -11 -43 -11 -18 0
-19 -2 -9 -15 7 -9 10 -18 6 -22 -3 -3 -6 -1 -6 5 0 6 -16 12 -35 14 -39 3
-48 20 -16 28 19 5 19 6 -4 32 -20 23 -29 26 -59 21 -38 -6 -88 11 -157 53
-40 25 -64 73 -27 53 24 -13 50 -5 43 13 -3 8 4 24 16 37 16 17 28 21 48 16
14 -4 26 -7 27 -8 0 -1 8 -14 17 -29 19 -30 54 -37 63 -14 3 8 13 12 25 9 13
-4 19 0 19 11 0 15 12 21 34 17 4 -1 14 3 22 10 8 6 25 8 39 5 25 -6 25 -6 25
58 l0 63 -48 7 c-29 4 -58 15 -72 28 l-23 21 27 19 c14 11 26 25 26 32 0 7 7
27 16 44 8 18 13 36 9 42 -11 18 27 24 40 7 7 -10 15 -17 19 -17 3 0 6 100 6
221 0 177 -3 219 -13 211 -11 -9 -148 -2 -210 11 -10 2 -44 0 -75 -5 -32 -4
-107 -10 -167 -13 -97 -4 -116 -2 -150 15 -22 11 -44 20 -51 20 -6 0 -19 9
-30 21 -23 26 -67 49 -91 49 -10 0 -47 -18 -82 -41 -62 -39 -117 -64 -176 -78
-27 -6 -31 -12 -37 -55 -4 -27 -12 -54 -17 -59 -6 -6 -11 -19 -11 -28 0 -9 -8
-27 -18 -39 -34 -42 0 -120 47 -105 11 3 34 25 51 49 28 39 117 116 134 116 4
0 20 9 35 21 41 30 91 19 91 -19 0 -15 3 -43 6 -63 6 -34 2 -41 -52 -98 -32
-33 -63 -61 -69 -61 -6 0 -32 -13 -58 -30 -26 -16 -53 -30 -60 -30 -7 0 -46
-27 -86 -60 -41 -33 -79 -60 -85 -60 -21 1 -48 52 -52 98 -3 26 -9 51 -14 56
-6 6 -10 21 -10 35 0 14 -9 35 -20 47 -27 28 -34 115 -14 163 16 39 12 61 -11
61 -11 0 -14 6 -9 24 3 14 -1 34 -10 48 -17 27 -15 76 8 186 9 40 16 85 16 99
0 13 12 42 27 63 29 39 32 41 145 58 34 5 52 15 68 34 12 16 26 28 30 28 5 0
38 13 74 29 62 29 96 60 96 89 0 26 -54 84 -100 107 -44 22 -48 27 -54 71 -3
26 -6 61 -6 79 0 35 -21 83 -42 96 -33 21 -143 0 -153 -29 -3 -9 -28 -31 -55
-49 l-50 -31 -54 19 c-80 28 -90 21 -81 -58 4 -43 3 -74 -5 -94 -19 -44 20
-138 77 -188 46 -42 46 -28 4 -139 -8 -20 -22 -34 -37 -38 -23 -6 -34 -24 -14
-24 14 0 12 -17 -5 -53 -20 -45 -55 -176 -55 -209 0 -15 -4 -30 -10 -33 -5 -3
-10 -24 -10 -46 0 -21 -3 -39 -7 -40 -20 -2 -45 -8 -49 -11 -2 -3 -7 -18 -10
-35 -5 -24 -1 -35 15 -49 15 -13 17 -21 10 -31 -8 -9 -7 -17 5 -28 21 -22 20
-31 -6 -57 -19 -19 -20 -22 -5 -33 10 -7 17 -17 17 -24 0 -6 6 -11 13 -11 8 0
19 -10 25 -22 10 -19 79 -207 99 -270 5 -16 -2 -18 -51 -18 -50 0 -56 -2 -56
-21 0 -13 10 -23 30 -31 25 -8 28 -13 19 -24 -8 -9 -33 -14 -78 -14 -59 0 -71
3 -90 24 -13 14 -40 28 -62 31 -47 8 -56 19 -61 70 -3 42 0 45 75 60 15 3 27
12 27 20 0 14 10 17 79 20 53 2 41 124 -15 156 -45 25 -84 32 -84 15 0 -24
-37 -29 -60 -8 -20 18 -95 35 -148 33 -12 0 -36 -8 -52 -16 -23 -12 -35 -13
-51 -5 -19 11 -19 13 -5 29 9 10 13 21 9 24 -11 11 -58 8 -71 -5 -9 -9 -12 -8
-12 5 0 12 -8 17 -30 17 -25 0 -32 6 -45 36 -8 20 -15 56 -15 80 0 31 -4 44
-14 44 -9 0 -18 19 -25 52 -21 102 -32 163 -37 208 -7 72 -39 225 -70 339
l-17 64 22 19 c13 10 28 18 35 18 6 0 20 15 31 32 10 18 45 64 77 102 32 39
58 74 58 79 0 4 11 23 24 40 26 35 56 99 76 162 7 22 18 51 25 65 7 14 15 43
18 65 3 22 9 64 13 94 l7 53 63 -7 63 -6 15 34 c12 30 22 37 68 50 67 20 242
21 278 2 21 -11 29 -11 43 0 10 7 67 15 134 20 65 3 135 13 158 20 22 7 58 16
80 20 22 4 45 10 50 15 6 4 27 13 48 19 23 8 37 19 37 30 0 9 7 26 15 38 8 11
16 35 17 52 1 17 5 31 9 31 4 0 5 9 2 20 -3 11 -1 20 5 20 12 0 23 38 12 45
-10 6 -10 54 1 61 12 7 11 54 0 54 -6 0 -9 9 -8 21 2 24 42 43 124 59 31 5 61
14 65 18 13 13 -33 11 -97 -4 -33 -7 -82 -14 -109 -16 -52 -2 -58 2 -111 84
-25 38 -75 58 -110 44 -9 -3 -24 0 -35 6 -16 10 -36 7 -111 -17 -81 -27 -95
-35 -130 -77 l-40 -47 22 -53 c31 -72 45 -92 75 -108 30 -17 44 -3 36 36 -2
13 -1 58 3 99 6 70 8 76 40 95 43 26 67 25 104 -5 32 -28 35 -41 45 -187 l6
-77 -58 -16 c-31 -9 -79 -28 -107 -42 -27 -14 -67 -34 -87 -45 -21 -10 -77
-25 -125 -34 -72 -12 -100 -13 -157 -3 -79 13 -184 5 -227 -16 -45 -24 -62
-20 -56 13 19 94 33 132 96 267 39 83 71 155 71 161 0 18 111 217 131 237 11
10 32 44 47 75 15 31 35 69 45 83 26 38 38 87 24 96 -6 3 -16 -2 -21 -12 -6
-10 -37 -44 -68 -76 -32 -32 -75 -82 -96 -112 -21 -30 -51 -70 -66 -88 -15
-19 -57 -79 -92 -133 -38 -60 -65 -94 -68 -85 -4 14 -14 172 -21 334 -2 44 -8
132 -14 196 -6 64 -14 155 -17 203 l-7 86 42 0 c23 0 51 -5 62 -11 15 -7 35
-5 84 12 50 17 76 20 112 14 65 -9 95 -10 113 -2 12 6 20 -5 35 -50 28 -86 50
-127 101 -185 58 -66 90 -80 173 -78 36 1 80 2 96 1 56 0 133 20 150 39 13 14
31 20 60 20 53 0 85 28 85 73 -1 27 -9 38 -54 70 -39 28 -56 48 -61 70 -12 51
-9 133 5 177 16 48 51 70 143 91 63 13 79 26 53 41 -24 13 -20 31 4 18 24 -13
42 -4 84 39 23 24 32 28 45 19 13 -8 30 -5 69 13 29 13 52 27 52 31 0 14 -45
9 -67 -7 -20 -14 -22 -14 -28 5 -5 16 -10 18 -20 10 -9 -7 -16 -6 -25 5 -10
12 -9 16 4 21 9 3 15 13 14 22 -2 10 8 18 28 24 19 5 34 16 37 28 3 11 12 20
21 20 9 0 16 3 16 8 0 12 -36 40 -56 44 -27 5 -30 38 -5 45 12 3 21 11 21 18
0 7 9 15 20 18 30 8 26 45 -5 53 -14 3 -25 14 -26 23 0 10 -2 11 -6 4 -8 -20
-33 -15 -33 6 0 24 16 36 23 19 3 -9 7 -6 13 6 5 14 1 24 -16 38 -19 15 -21
21 -11 28 20 12 5 27 -34 34 -31 6 -35 10 -29 29 4 12 10 24 15 27 4 3 4 12
-1 20 -16 25 -11 37 14 44 24 6 42 37 32 54 -3 5 -20 9 -37 10 -40 1 -57 16
-40 36 7 8 13 46 14 85 2 56 -1 71 -15 80 -10 6 -18 15 -18 20 0 12 -70 83
-95 96 -26 14 -31 41 -8 49 11 5 23 0 34 -15 15 -20 47 -19 34 0 -2 5 4 16 15
26 33 30 25 52 -30 83 -35 19 -50 33 -50 48 0 23 -17 33 -53 35 -19 0 -18 2 6
11 30 11 36 27 10 27 -10 0 -49 3 -86 7 -54 5 -71 11 -86 30 -13 16 -29 24
-51 24 -24 0 -31 4 -27 14 8 21 -17 38 -55 38 -26 0 -37 7 -53 32 -22 33 -62
46 -76 24 -5 -7 -12 -13 -16 -14 -20 -2 -48 -20 -82 -51 -44 -42 -80 -58 -95
-43 -5 5 -21 10 -34 10 -13 0 -31 4 -41 9 -12 7 -33 4 -66 -7 -37 -13 -49 -14
-52 -4 -8 20 -22 14 -43 -20 -13 -21 -16 -36 -9 -44 10 -12 16 -64 21 -196 4
-87 4 -88 42 -121 l37 -34 -57 -69 c-31 -38 -61 -79 -66 -90 -6 -12 -26 -29
-45 -38 -29 -14 -41 -31 -75 -104 -62 -135 -65 -144 -78 -192 -6 -25 -21 -65
-32 -90 -18 -40 -51 -149 -92 -307 -20 -76 -38 -95 -51 -53 -3 11 -13 20 -20
20 -15 0 -38 -34 -29 -43 3 -3 -3 -10 -14 -16 -12 -7 -18 -18 -16 -28 4 -15
-9 -22 -69 -40 -96 -30 -134 -29 -170 3 -30 26 -30 54 -1 54 10 0 41 -7 69
-16 72 -23 145 -13 145 20 0 12 14 36 31 54 l31 31 -94 3 -93 3 43 46 c23 25
42 50 42 56 0 5 11 24 25 43 29 39 36 92 10 70 -13 -11 -21 -8 -50 20 -31 30
-33 35 -18 45 15 11 14 14 -5 35 -17 18 -19 27 -10 37 16 19 3 27 -22 13 -18
-10 -21 -9 -18 2 3 7 20 14 39 16 38 4 65 22 34 22 -17 0 -15 5 11 28 35 29
57 66 47 76 -3 3 -16 3 -27 0 -28 -7 -76 12 -76 29 0 7 -18 21 -41 31 -35 16
-46 17 -84 6 -41 -11 -46 -11 -73 11 -24 19 -31 35 -37 78 -4 30 -12 65 -18
78 l-11 24 -19 -23 c-12 -16 -20 -19 -24 -10 -2 6 -11 12 -19 12 -8 0 -14 7
-14 16 0 9 -9 18 -20 21 -15 4 -19 11 -15 24 9 27 -10 54 -50 73 -48 23 -46
51 7 96 41 36 45 60 10 60 -29 0 -59 28 -65 60 -4 16 -13 30 -20 30 -16 0 -47
-32 -47 -48 0 -6 -9 -16 -20 -22 -14 -7 -20 -21 -20 -43 0 -23 -3 -28 -9 -18
-5 8 -7 20 -5 26 4 8 -15 14 -58 18 -34 3 -64 10 -66 16 -2 6 -10 11 -18 11
-8 0 -14 6 -14 13 -1 19 -46 66 -74 77 -23 8 -24 12 -15 42 6 18 13 41 16 50
5 16 2 17 -26 7 -20 -7 -31 -18 -31 -30 0 -10 -13 -25 -30 -34 -25 -13 -30
-13 -30 -1 0 7 -11 17 -25 20 -17 4 -25 13 -25 29 -1 21 -1 22 -15 3 -15 -19
-15 -19 -15 2 0 12 6 22 14 22 16 0 17 36 1 60 -14 20 -54 42 -65 35 -11 -7
-74 24 -66 32 7 7 -19 33 -34 33 -24 0 -60 33 -60 55 0 13 -6 26 -12 28 -10 4
-10 6 0 6 6 1 12 10 12 21 0 17 -3 19 -18 11 -17 -9 -45 -1 -42 13 6 25 -28
38 -102 38 -38 0 -60 24 -36 39 10 6 8 12 -7 23 -11 9 -24 16 -28 16 -5 0 -6
13 -2 29 5 24 1 34 -22 55 -25 24 -29 24 -48 10 -11 -8 -32 -20 -47 -27 -16
-6 -28 -15 -28 -19 0 -4 -6 -5 -14 -2 -8 3 -17 1 -21 -5 -9 -15 -72 -13 -120
3 -29 11 -67 13 -137 9 -95 -6 -98 -5 -98 15 0 15 6 22 20 22 28 0 25 14 -7
31 -18 10 -60 14 -137 14 l-111 0 -85 -43 c-58 -30 -100 -60 -133 -95 -41 -45
-53 -52 -85 -52 -31 0 -39 -5 -52 -31 -8 -16 -30 -47 -49 -67 -28 -31 -37 -35
-49 -24 -12 10 -16 9 -20 -1 -2 -7 -19 -19 -39 -27 -19 -8 -32 -19 -28 -25 8
-13 42 -13 50 0 9 15 47 12 43 -2 -5 -16 -87 -58 -108 -56 -8 1 -24 -3 -35 -9
-23 -13 -131 -24 -140 -15 -3 3 -17 8 -32 10 -22 3 -25 0 -20 -18 4 -17 2 -20
-13 -15 -11 3 -20 0 -24 -11 -5 -12 -9 -14 -20 -5 -11 9 -15 7 -19 -10 -3 -12
-12 -19 -19 -17 -7 3 -18 -2 -24 -10 -5 -7 -27 -14 -47 -15 -27 -1 -45 -9 -67
-31 -136 -140 -159 -170 -202 -258 -70 -142 -88 -185 -88 -211 0 -27 -15 -47
-52 -70 -16 -10 -28 -24 -28 -32 0 -7 -9 -17 -20 -20 -11 -3 -20 -11 -20 -16
0 -5 -12 -9 -26 -9 -17 0 -28 6 -31 20 -3 11 -12 20 -19 20 -25 0 -15 32 21
66 19 18 35 42 35 54 0 11 7 23 15 26 8 4 15 14 15 24 0 10 -7 23 -15 30 -8 7
-15 21 -15 30 0 10 -11 31 -24 47 -13 16 -26 49 -30 76 -7 46 -26 66 -26 27 0
-26 -28 -26 -38 0 -13 34 -36 8 -28 -33 5 -29 12 -37 36 -42 38 -8 47 -21 55
-77 6 -41 4 -48 -14 -60 -25 -15 -27 -28 -6 -28 8 0 15 -8 15 -17 0 -13 -3
-14 -11 -6 -13 13 -42 6 -33 -8 3 -5 15 -9 27 -9 19 -1 17 -5 -18 -33 -22 -18
-58 -49 -79 -69 -28 -25 -43 -34 -48 -26 -5 9 -14 4 -31 -14 -14 -15 -22 -29
-19 -32 3 -3 0 -6 -6 -6 -7 0 -12 -7 -12 -16 0 -13 -6 -15 -27 -10 -16 4 -41
7 -56 6 -16 0 -26 4 -23 9 11 17 -6 41 -29 41 -13 0 -27 5 -31 11 -3 6 -20 9
-36 7 -26 -4 -29 -2 -25 16 2 12 8 28 11 37 4 9 1 23 -6 31 -7 7 -18 23 -24
33 -6 11 -21 21 -33 23 -22 4 -28 17 -11 27 22 14 10 35 -20 35 -23 0 -30 5
-30 19 0 11 -4 22 -9 25 -14 9 -1 55 15 49 8 -3 14 -1 14 5 0 5 13 12 29 15
16 4 30 14 33 25 3 12 18 22 39 26 29 7 31 9 14 16 -13 5 -26 2 -37 -7 -13
-11 -32 -14 -68 -11 -54 5 -76 20 -82 53 -2 11 -9 26 -16 33 -7 8 -10 18 -7
23 4 5 1 9 -4 9 -6 0 -11 -5 -11 -10 0 -16 -47 -30 -79 -24 -24 5 -30 12 -35
45 -3 21 -11 39 -16 39 -6 0 -10 6 -10 14 0 17 -110 17 -125 0 -17 -20 -55 1
-55 31 0 36 -20 55 -47 44 -14 -5 -25 -4 -29 2 -3 6 -12 2 -21 -11 l-15 -21
-20 26 c-10 14 -26 25 -34 25 -9 0 -14 7 -12 18 3 12 12 16 30 14 19 -2 30 4
38 18 6 12 25 26 41 32 16 5 29 14 29 19 0 12 -49 31 -61 23 -5 -3 -9 0 -9 5
0 6 -8 11 -17 11 -10 0 -26 7 -36 14 -17 13 -16 14 3 19 27 7 26 25 -2 29 -13
2 -24 11 -26 22 -2 10 0 16 6 13 16 -11 44 17 36 36 -3 9 -10 17 -14 17 -5 0
-22 12 -39 26 -30 25 -31 25 -31 5 0 -21 -24 -29 -34 -12 -3 4 -17 6 -31 3
-14 -2 -25 0 -25 5 0 16 -58 43 -87 41 -16 -1 -35 2 -42 6 -8 5 -16 3 -22 -5
-4 -7 -11 -10 -16 -6 -4 5 -1 12 6 16 7 5 10 14 7 20 -4 6 -12 9 -17 6 -5 -4
-9 -2 -9 4 0 5 4 11 8 13 5 2 12 16 16 31 5 22 4 28 -6 24 -7 -2 -12 -12 -10
-22 3 -15 -1 -17 -30 -11 -18 3 -42 17 -53 31 -12 14 -26 25 -33 25 -7 0 -12
11 -12 25 0 14 -5 25 -11 25 -5 0 -8 -4 -5 -9 3 -5 -6 -20 -20 -34 l-26 -26
27 2 c16 1 30 -4 35 -13 4 -8 12 -26 19 -38 15 -29 12 -33 -16 -26 -13 4 -20
11 -16 20 5 13 -9 17 -52 17 -6 0 -18 15 -27 34 -17 32 -17 33 2 33 15 0 19 5
16 23 -3 12 -5 29 -6 37 0 8 -7 23 -15 34 -13 17 -15 17 -31 2 -19 -20 -51
-13 -77 16 -15 18 -25 20 -79 15 -51 -4 -73 -1 -122 19 -33 13 -60 24 -60 24
-1 0 -9 -18 -19 -40z m172 -52 c11 -29 6 -37 -19 -31 -26 7 -45 39 -27 46 25
11 38 6 46 -15z m3635 -67 c10 -15 -27 -52 -43 -42 -11 7 -10 12 5 29 21 23
30 26 38 13z m-3434 -64 c0 -8 -7 -14 -15 -14 -8 0 -15 6 -15 14 0 7 7 13 15
13 8 0 15 -6 15 -13z m3190 -17 c0 -5 -5 -10 -11 -10 -5 0 -7 5 -4 10 3 6 8
10 11 10 2 0 4 -4 4 -10z m-2975 -104 c16 -12 18 -19 10 -42 -12 -32 -45 -46
-45 -18 0 9 -10 32 -21 51 -18 29 -19 37 -8 43 8 6 19 3 29 -6 8 -8 24 -21 35
-28z m-235 2 c0 -5 -7 -8 -15 -8 -8 0 -15 2 -15 4 0 2 -3 12 -6 21 -6 15 -4
15 15 4 11 -8 21 -17 21 -21z m79 -9 c35 -12 36 -14 16 -49 -14 -24 -14 -24
-15 -4 0 17 -8 23 -35 28 -21 4 -35 13 -35 21 0 18 25 19 69 4z m3931 1 c0 -5
-4 -10 -10 -10 -5 0 -10 5 -10 10 0 6 5 10 10 10 6 0 10 -4 10 -10z m75 -10
c3 -5 1 -10 -4 -10 -6 0 -11 5 -11 10 0 6 2 10 4 10 3 0 8 -4 11 -10z m80 -19
c7 -12 -12 -24 -25 -16 -11 7 -4 25 10 25 5 0 11 -4 15 -9z m-150 -31 c3 -5
17 -10 30 -10 12 0 25 -7 29 -15 3 -8 12 -15 21 -15 18 0 20 -21 3 -38 -9 -9
-9 -15 1 -24 10 -11 16 -8 31 12 l19 25 33 -35 c36 -38 62 -80 48 -80 -4 0
-11 7 -14 16 -4 9 -13 14 -21 10 -10 -3 -15 1 -15 13 0 26 -21 32 -42 13 -16
-13 -20 -13 -43 2 -14 9 -30 28 -35 42 -5 13 -14 24 -20 24 -15 0 -50 38 -50
55 0 17 16 20 25 5z m-3637 -22 c25 -21 14 -38 -20 -31 -34 6 -68 29 -68 46 0
11 70 0 88 -15z m132 -13 c0 -10 -10 -15 -32 -15 -31 1 -32 1 -14 15 25 19 46
19 46 0z m-784 -175 c19 0 18 -20 -3 -35 -30 -22 -9 -46 39 -44 39 2 88 -13
88 -27 0 -10 -28 -34 -39 -34 -6 0 -11 5 -11 10 0 6 -9 10 -20 10 -11 0 -20
-7 -20 -15 0 -8 -5 -15 -11 -15 -6 0 -9 -7 -6 -14 6 -16 -26 -32 -42 -22 -18
12 1 45 28 48 26 4 25 4 -11 22 -34 18 -38 18 -53 2 -22 -22 -33 -20 -37 7 -2
12 -7 20 -13 19 -5 -2 -9 -8 -8 -12 2 -5 -16 -8 -39 -7 -25 1 -43 -3 -45 -10
-3 -8 5 -13 22 -13 38 0 64 -17 59 -37 -3 -12 5 -24 23 -36 l28 -18 -25 3
c-14 1 -29 0 -35 -3 -35 -20 -45 -18 -58 14 l-13 32 0 -42 c0 -36 3 -43 26
-49 l25 -6 -22 -9 c-17 -6 -23 -16 -23 -39 0 -26 -4 -30 -26 -30 -15 0 -23 4
-19 11 8 12 -33 59 -51 59 -20 0 -64 49 -64 71 0 23 43 43 72 33 26 -8 48 13
48 47 0 22 -5 29 -19 29 -11 0 -21 -5 -23 -11 -3 -8 -20 -9 -53 -5 l-50 7 -3
45 -2 46 32 -3 c71 -6 167 12 193 37 14 13 30 24 34 24 4 0 16 9 27 21 l18 20
34 -40 c18 -23 40 -41 48 -41z m-341 30 c3 -5 1 -10 -4 -10 -6 0 -11 5 -11 10
0 6 2 10 4 10 3 0 8 -4 11 -10z m-295 -25 c0 -8 -7 -15 -15 -15 -8 0 -15 7
-15 15 0 8 7 15 15 15 8 0 15 -7 15 -15z m180 -134 c0 -14 -29 -21 -36 -9 -4
6 -3 8 4 4 6 -3 13 -2 17 4 8 12 15 13 15 1z m-59 -34 c-8 -8 -11 -8 -11 1 0
7 -7 12 -16 12 -8 0 -13 -4 -10 -9 3 -5 -8 -14 -26 -20 -38 -13 -38 -13 -38
-1 0 6 9 10 19 10 10 0 21 6 24 14 6 16 60 26 66 13 2 -5 -2 -14 -8 -20z
m3530 -50 c-13 -13 -26 -3 -16 12 3 6 11 8 17 5 6 -4 6 -10 -1 -17z m103 7
c10 -27 7 -31 -24 -26 -30 4 -30 5 -14 23 21 23 30 24 38 3z m-3067 -20 c4
-10 0 -20 -10 -26 -10 -5 -17 -14 -17 -19 0 -6 5 -7 12 -3 7 4 8 3 4 -4 -9
-15 -26 -16 -26 -1 0 6 -7 17 -15 25 -8 9 -15 22 -15 30 0 20 59 19 67 -2z
m1173 -20 c0 -8 -9 -14 -20 -14 -18 0 -19 3 -10 20 12 22 30 18 30 -6z m-1724
-41 c-4 -4 -11 -1 -16 7 -16 25 -11 35 7 17 9 -9 13 -20 9 -24z m-71 7 c3 -5
1 -10 -4 -10 -6 0 -11 5 -11 10 0 6 2 10 4 10 3 0 8 -4 11 -10z m551 -15 c18
-14 17 -14 -13 -15 -33 0 -52 15 -31 23 20 8 23 8 44 -8z m2906 -10 c4 -20 1
-25 -14 -25 -13 0 -17 4 -11 13 4 6 8 15 9 20 3 14 4 17 8 17 2 0 6 -11 8 -25z
m58 5 c0 -5 -7 -7 -15 -4 -8 4 -15 8 -15 10 0 2 7 4 15 4 8 0 15 -4 15 -10z
m-3288 -40 c10 0 18 -4 18 -9 0 -5 14 -14 30 -21 17 -7 30 -17 30 -22 0 -6 6
-5 14 2 17 13 58 10 54 -5 -2 -5 -43 -11 -93 -13 -49 -2 -95 -8 -101 -13 -14
-12 -84 11 -84 28 0 8 13 13 35 13 24 0 35 -5 35 -15 0 -17 16 -20 25 -5 3 6
1 10 -6 10 -9 0 -9 4 1 15 10 12 7 15 -14 21 -17 4 -26 13 -26 26 0 15 5 19
20 15 11 -3 20 0 21 6 0 7 5 2 11 -10 6 -13 19 -23 30 -23z m1692 -1 c9 8 18
5 35 -13 25 -27 22 -55 -9 -91 -9 -11 -27 -47 -40 -80 -12 -33 -27 -70 -33
-82 -12 -26 -1 -46 22 -38 10 3 25 -3 35 -14 11 -12 31 -19 56 -19 48 -1 60
-7 60 -33 0 -10 4 -19 10 -19 12 0 70 -56 70 -68 0 -4 36 -8 80 -7 68 0 83 -3
100 -21 24 -24 28 -69 12 -129 -12 -44 -2 -113 18 -125 9 -6 9 -9 0 -15 -7 -4
-9 -24 -7 -51 3 -24 1 -46 -4 -49 -5 -3 -32 5 -61 18 -29 14 -68 31 -85 38
-26 11 -33 20 -33 41 0 15 5 30 10 33 6 3 10 12 10 20 0 9 -17 14 -52 17 -63
5 -85 -9 -94 -59 -10 -52 31 -169 73 -210 18 -17 33 -37 33 -44 0 -7 -10 -3
-23 9 -13 12 -26 22 -30 22 -11 0 -8 -60 5 -83 20 -39 79 -106 99 -112 25 -8
24 -36 -1 -68 -11 -14 -20 -30 -20 -35 0 -25 -24 -21 -69 11 -27 20 -62 42
-78 51 -16 8 -40 26 -53 39 -13 14 -30 23 -36 20 -16 -6 -121 47 -183 92 -55
40 -67 51 -104 93 l-27 32 30 0 c16 0 30 2 30 5 0 22 -45 84 -65 89 -28 7 -55
52 -55 91 0 14 -4 25 -10 25 -5 0 -10 20 -10 45 0 28 4 45 12 45 9 0 9 3 0 12
-7 7 -12 30 -12 53 0 23 -5 46 -10 51 -16 16 15 81 61 131 22 24 39 49 39 56
0 8 11 35 25 61 14 26 25 53 25 61 0 8 6 18 13 22 7 4 25 30 41 56 32 56 50
66 75 43 22 -20 35 -20 50 -2 10 12 7 15 -16 18 -22 2 -29 9 -33 33 -4 20 -12
31 -30 36 -25 6 -22 10 20 22 8 2 39 -5 68 -15 38 -14 56 -17 66 -9z m3796 5
c0 -8 7 -14 15 -14 8 0 15 -4 15 -9 0 -11 -30 -19 -47 -14 -13 5 -18 45 -7 56
10 9 24 -2 24 -19z m-2305 -13 c-15 -13 -62 -26 -50 -13 6 5 19 12 30 15 11 3
22 5 25 6 2 0 0 -3 -5 -8z m535 1 c0 -4 -13 -16 -30 -25 -35 -21 -39 -43 -10
-52 11 -3 20 -10 20 -15 0 -5 12 -17 26 -27 45 -29 167 -17 241 25 41 23 83
-24 51 -56 -10 -10 -9 -17 2 -35 8 -12 17 -50 21 -84 6 -62 37 -153 52 -153 4
0 3 9 -3 20 -15 28 -5 39 33 36 17 -2 40 -4 50 -5 29 -2 19 -21 -12 -21 -34 0
-50 -16 -24 -24 31 -10 78 9 76 30 -1 10 0 13 3 7 3 -7 10 -13 16 -13 13 0 40
-28 55 -57 11 -22 10 -27 -9 -43 l-22 -17 32 -17 c18 -9 32 -13 32 -10 0 4 20
-14 44 -39 24 -26 50 -47 58 -47 7 0 28 -14 45 -30 28 -27 35 -29 52 -18 16
10 27 10 54 0 18 -7 53 -12 78 -12 49 0 85 -15 59 -24 -8 -3 -26 -4 -40 -2
-14 1 -36 -3 -50 -9 -14 -6 -49 -11 -77 -10 -29 0 -53 -4 -53 -9 0 -4 -8 -5
-17 -2 -14 6 -14 3 3 -15 13 -16 15 -23 7 -26 -21 -7 -15 -54 11 -87 25 -34
76 -46 102 -25 14 11 34 5 34 -12 0 -5 -10 -14 -22 -19 -22 -8 -22 -9 -2 -9
11 -1 29 8 39 19 10 11 31 20 47 20 28 0 39 15 16 23 -18 6 -5 18 24 22 12 2
34 6 48 9 14 4 19 4 12 0 -6 -3 -10 -9 -7 -14 3 -4 -3 -7 -12 -6 -9 0 -18 -5
-20 -11 -3 -9 4 -11 29 -6 18 3 35 10 36 15 2 4 13 8 24 8 21 0 108 -77 108
-96 0 -6 7 -17 15 -24 8 -6 26 -32 41 -57 22 -39 25 -49 15 -66 -15 -23 -7
-34 12 -19 8 7 17 9 20 5 13 -12 7 -23 -14 -23 -11 0 -30 -5 -42 -12 -12 -6
-35 -11 -52 -10 -20 2 -39 -6 -56 -21 -34 -33 -67 -49 -80 -41 -6 4 -14 1 -18
-5 -4 -6 -27 -13 -52 -14 -25 -2 -50 -7 -57 -11 -7 -4 -25 -5 -40 -2 -38 8
-117 -32 -117 -59 0 -15 6 -20 25 -19 14 1 33 4 42 8 13 6 15 3 11 -14 -3 -12
-2 -25 3 -29 5 -3 14 -16 19 -29 l10 -23 22 20 21 20 11 -29 c5 -17 17 -30 25
-30 8 0 21 -2 29 -6 8 -3 32 12 57 36 30 29 46 38 54 30 7 -5 34 -9 60 -8 51
3 72 22 55 49 -16 25 -10 39 17 39 14 0 35 5 46 11 19 10 20 9 16 -21 -4 -26
-1 -33 19 -41 27 -10 30 -29 6 -35 -16 -4 -18 -19 -19 -107 -1 -93 -12 -179
-34 -250 -5 -16 -4 -42 2 -63 7 -26 6 -40 -2 -48 -8 -8 -9 -7 -5 7 4 10 2 17
-4 17 -20 0 -12 -42 9 -47 21 -6 28 -22 10 -24 -5 -1 -14 -2 -19 -3 -18 -2
-24 -16 -8 -16 19 0 20 -2 11 -24 -3 -9 -12 -16 -19 -16 -15 0 -29 -35 -20
-49 3 -5 1 -12 -4 -16 -6 -3 -7 -13 -4 -21 5 -13 7 -13 14 -2 6 9 9 9 9 1 0
-6 -5 -15 -10 -18 -6 -4 -7 -11 -3 -17 9 -16 10 -119 0 -125 -13 -8 3 -22 18
-16 8 3 15 0 15 -6 0 -6 -15 -11 -34 -11 -37 0 -65 -28 -81 -80 -4 -14 -12
-28 -17 -31 -14 -9 -19 -81 -6 -96 14 -17 49 2 42 22 -5 11 -2 13 11 9 11 -5
13 -10 6 -17 -16 -16 -13 -27 5 -27 14 0 14 -3 4 -15 -7 -8 -18 -15 -25 -15
-8 0 -15 -4 -17 -9 -1 -5 -55 -41 -118 -81 -63 -39 -125 -81 -136 -92 -19 -17
-27 -18 -60 -9 -55 15 -127 14 -160 -4 -20 -10 -44 -13 -74 -9 -25 3 -80 6
-123 7 -61 2 -80 6 -88 18 -5 9 -21 20 -36 24 -15 3 -34 15 -43 25 -8 10 -35
28 -58 40 -23 12 -42 28 -42 36 0 8 -5 14 -11 14 -6 0 -21 9 -33 20 -66 60
-102 90 -112 90 -6 0 -18 10 -26 22 -8 12 -19 18 -26 14 -8 -5 -3 -15 18 -32
32 -28 34 -42 7 -62 -9 -7 -15 -17 -12 -22 11 -18 -24 -17 -41 1 -9 10 -23 19
-31 19 -7 0 -13 5 -13 10 0 13 16 13 40 0 15 -8 19 -5 22 15 4 20 1 25 -16 26
-42 2 -81 -3 -91 -12 -5 -5 -14 -9 -21 -9 -9 0 -9 6 -1 25 7 14 20 25 30 25
17 0 19 6 21 64 1 18 8 31 19 35 15 6 12 10 -17 24 -35 16 -52 7 -19 -11 15
-9 14 -12 -5 -32 -11 -12 -18 -29 -15 -38 7 -16 1 -16 -69 10 -28 11 -34 17
-28 29 7 12 1 20 -28 34 -20 10 -31 20 -24 22 21 8 13 31 -13 37 -14 4 -25 14
-26 24 0 14 -2 14 -9 -3 -8 -18 -9 -17 -9 8 -1 16 3 26 9 22 6 -3 10 1 10 10
0 9 -4 14 -9 10 -5 -3 -12 -1 -16 4 -3 6 -12 8 -20 5 -7 -3 -18 3 -24 14 -8
16 -7 19 6 18 10 0 19 10 24 27 7 25 4 31 -28 49 -31 19 -33 23 -19 33 8 7 13
15 9 18 -3 4 -3 7 1 7 3 0 11 -12 17 -27 12 -31 31 -19 23 15 -6 19 -13 22
-56 22 -39 0 -49 3 -45 14 3 8 3 17 -1 21 -3 3 -6 18 -7 33 0 20 -5 27 -20 27
-25 0 -35 13 -35 46 0 14 -5 30 -11 36 -8 8 -8 17 -1 30 12 22 0 49 -18 38 -9
-5 -10 -1 -5 16 4 13 8 24 9 25 0 0 12 5 26 11 l25 12 -27 0 c-15 1 -31 7 -35
15 -4 8 -17 15 -28 18 -24 4 -27 34 -3 30 14 -2 15 2 8 28 -7 24 -6 30 6 30 8
0 19 -10 24 -22 9 -23 9 -23 9 -2 1 13 9 24 21 27 11 3 20 13 20 23 0 16 -1
16 -20 -1 -22 -20 -53 -14 -44 10 8 19 -3 19 -22 1 -7 -8 -23 -12 -34 -9 -19
5 -19 7 11 34 17 15 37 31 43 34 7 3 7 7 1 10 -38 20 -40 24 -28 55 9 25 9 30
-3 30 -8 0 -14 -7 -14 -15 0 -30 -18 -14 -25 23 -3 20 -9 48 -12 62 -5 24 -5
24 9 6 10 -12 17 -15 22 -8 3 6 2 13 -4 17 -5 3 -10 16 -10 28 -1 35 -27 100
-44 109 -9 5 -20 18 -26 28 -8 16 -8 18 5 14 8 -4 15 -2 15 4 0 6 9 8 20 5 11
-3 20 0 20 6 0 6 -7 11 -16 11 -10 0 -14 5 -10 16 3 8 2 12 -4 9 -6 -3 -10 -1
-10 5 0 7 9 14 19 17 11 3 22 11 25 19 3 8 16 14 30 14 16 0 27 7 31 21 5 14
13 19 25 16 14 -3 20 1 22 17 2 11 10 21 18 21 8 0 16 9 18 20 2 16 1 17 -7 5
-5 -8 -13 -11 -16 -8 -11 10 4 28 24 28 30 0 63 44 55 74 -5 21 -2 27 20 36
14 5 33 7 41 4 8 -4 15 -1 15 5 0 7 -7 14 -15 17 -30 12 -14 23 30 20 24 -2
42 1 39 6 -3 4 -18 8 -35 8 -19 0 -29 5 -29 15 0 8 5 15 10 15 6 0 10 6 10 14
0 7 11 25 25 40 14 15 25 31 25 36 0 5 9 14 20 20 26 14 25 24 -2 37 l-23 11
25 10 c14 6 30 6 36 1 6 -5 14 -6 17 -2 13 12 7 23 -13 23 -17 0 -20 7 -20 40
0 25 5 40 13 40 8 0 8 3 -2 9 -17 11 -7 41 14 41 8 0 15 6 15 14 0 7 7 19 16
27 9 7 13 21 10 35 -4 13 0 27 9 34 10 8 13 21 9 39 -5 21 -4 24 7 14 17 -17
34 -17 21 0 -13 16 7 94 27 106 8 5 11 17 6 30 -3 11 -3 25 0 31 7 12 75 14
75 2z m780 -72 c0 -5 -4 -10 -10 -10 -5 0 -10 5 -10 10 0 6 5 10 10 10 6 0 10
-4 10 -10z m687 -9 c0 -11 -5 -17 -9 -15 -11 7 -10 34 1 34 6 0 9 -9 8 -19z
m303 -36 c0 -19 -28 -26 -50 -12 -31 19 -24 33 15 29 20 -2 35 -10 35 -17z
m-5533 9 c-3 -3 -12 -4 -19 -1 -8 3 -5 6 6 6 11 1 17 -2 13 -5z m7037 -29 c41
-14 83 -25 93 -25 10 0 27 -10 37 -21 11 -13 21 -18 25 -11 3 5 17 12 31 14
24 5 24 5 -7 17 -35 14 -44 31 -17 31 27 0 54 -20 54 -41 0 -11 5 -17 10 -14
6 3 10 0 10 -8 0 -18 -24 -29 -36 -17 -5 5 -10 -6 -11 -26 -1 -19 3 -34 8 -34
5 0 9 8 9 19 0 19 32 34 55 25 16 -7 28 -48 15 -52 -6 -2 -10 -12 -10 -23 0
-20 -55 -66 -74 -62 -6 2 -1 -4 12 -13 27 -20 29 -44 2 -44 -11 0 -20 -5 -20
-10 0 -7 20 -9 56 -6 56 6 56 6 50 -19 -5 -21 -3 -25 16 -26 39 -1 99 -8 119
-14 26 -9 24 -25 -3 -26 l-23 0 22 -9 c30 -12 20 -36 -18 -44 -32 -6 -40 -32
-11 -39 10 -2 1 -8 -25 -16 -24 -6 -43 -16 -43 -21 0 -5 -9 -11 -19 -15 -21
-6 -18 -35 3 -35 7 0 18 -11 26 -24 13 -25 14 -25 68 3 14 7 22 7 22 1 0 -5 8
-10 18 -10 15 -1 15 -2 -3 -12 -11 -6 -29 -20 -39 -30 -11 -10 -27 -18 -37
-18 -18 0 -29 -19 -29 -50 0 -9 -7 -23 -15 -30 -22 -18 -19 -50 5 -50 11 0 20
-7 20 -15 0 -8 -4 -15 -9 -15 -5 0 -12 -7 -15 -16 -7 -19 11 -47 25 -38 5 3 6
-2 3 -11 -12 -30 -39 -11 -50 35 -12 49 -39 63 -39 20 0 -18 -6 -26 -22 -28
-13 -2 -23 -9 -24 -15 0 -7 -4 -2 -9 11 -16 39 -63 24 -72 -23 -2 -15 -14 -21
-53 -27 -52 -7 -80 4 -71 29 4 9 -3 13 -19 13 -16 0 -25 -6 -25 -15 0 -11 -11
-15 -35 -15 -38 0 -55 -21 -36 -44 13 -15 5 -26 -21 -26 -20 0 -25 -16 -7 -22
8 -3 7 -9 -3 -19 -9 -8 -18 -24 -22 -36 -4 -14 -18 -23 -42 -28 -19 -3 -38
-13 -41 -21 -10 -26 -32 -14 -51 27 -11 25 -22 37 -26 30 -4 -6 -15 -11 -24
-11 -29 -1 -65 -38 -66 -70 -1 -23 -6 -30 -21 -31 -11 0 -39 -1 -62 -3 l-42
-2 -7 53 c-3 29 -3 73 0 97 5 29 3 52 -5 64 -15 24 2 189 26 245 8 20 15 45
15 55 0 10 14 39 30 65 17 26 30 53 30 60 0 7 7 26 16 42 9 17 27 61 41 99 13
38 40 99 60 135 20 36 43 79 51 95 8 16 35 48 59 71 23 23 43 46 43 52 0 17
43 42 72 42 15 1 61 -10 102 -24z m-1376 -17 c4 -20 -24 -27 -60 -15 -32 10
-35 22 -12 35 23 13 68 -1 72 -20z m-3748 -94 c0 -2 -12 -4 -27 -4 -21 0 -24
3 -14 9 13 8 41 5 41 -5z m-1490 -13 c0 -5 -15 -9 -34 -8 -19 0 -33 5 -30 9 7
11 64 10 64 -1z m5379 -36 c2 -3 -1 -11 -7 -17 -9 -9 -18 -8 -37 2 -35 19 -31
34 7 26 17 -3 34 -8 37 -11z m1681 -5 c0 -5 -7 -10 -15 -10 -8 0 -15 5 -15 10
0 6 7 10 15 10 8 0 15 -4 15 -10z m-2961 -42 c-9 -17 -9 -23 0 -26 6 -2 25
-15 40 -28 16 -13 33 -24 38 -24 19 0 60 -46 58 -66 -2 -36 -35 -64 -35 -30 0
19 -27 28 -65 20 -20 -3 -35 -1 -40 5 -3 6 -10 9 -14 7 -4 -3 -16 11 -26 30
-16 30 -17 39 -6 56 10 17 9 22 -10 39 l-22 19 22 0 c12 0 19 4 16 10 -4 6 7
10 25 10 29 0 30 -2 19 -22z m-994 2 c3 -5 1 -10 -4 -10 -6 0 -11 5 -11 10 0
6 2 10 4 10 3 0 8 -4 11 -10z m2310 -32 c-9 -42 -16 -50 -35 -38 -10 7 -12 12
-4 18 6 4 14 17 18 30 11 35 29 27 21 -10z m-3448 -2 c4 -4 0 -13 -10 -21 -14
-10 -16 -18 -7 -39 8 -23 20 -31 43 -27 4 0 7 -6 7 -14 0 -9 -6 -12 -15 -9 -8
4 -15 1 -15 -5 0 -6 7 -11 16 -11 9 0 14 -7 12 -17 -4 -21 -28 -30 -28 -10 0
26 -60 55 -102 50 -42 -6 -49 8 -25 50 27 49 49 66 83 64 18 -2 36 -6 41 -11z
m5033 -25 c0 -37 -111 -35 -118 2 -3 14 6 17 57 17 53 0 61 -2 61 -19z m-7477
-49 c-6 -4 -15 -20 -18 -35 -8 -30 -28 -31 -34 -2 -3 20 23 45 48 45 11 0 12
-3 4 -8z m-152 -95 c-13 -13 -26 -3 -16 12 3 6 11 8 17 5 6 -4 6 -10 -1 -17z
m3629 -112 c0 -16 -9 -19 -35 -9 -13 5 -14 8 -3 15 20 13 38 11 38 -6z m4110
0 c31 -1 46 -5 48 -15 2 -16 -45 -43 -59 -34 -5 3 -17 0 -28 -5 -14 -8 -22 -7
-31 4 -7 9 -21 13 -31 10 -31 -10 -42 5 -17 24 29 23 50 30 63 22 6 -3 30 -6
55 -6z m-2630 -16 c0 -43 -48 -63 -90 -37 -18 12 -17 14 23 30 50 20 67 22 67
7z m110 -79 c0 -5 -4 -10 -10 -10 -5 0 -10 5 -10 10 0 6 5 10 10 10 6 0 10 -4
10 -10z m-1660 -10 c0 -5 -7 -10 -16 -10 -8 0 -12 5 -9 10 3 6 10 10 16 10 5
0 9 -4 9 -10z m4075 -50 c3 -5 1 -10 -4 -10 -6 0 -11 5 -11 10 0 6 2 10 4 10
3 0 8 -4 11 -10z m449 -6 c14 -5 14 -8 1 -21 -17 -16 -35 -9 -35 13 0 15 9 17
34 8z m-481 -29 c-7 -21 -13 -19 -13 6 0 11 4 18 10 14 5 -3 7 -12 3 -20z
m110 -17 c4 1 7 -7 7 -18 0 -11 7 -20 15 -20 19 0 38 -37 32 -61 -3 -12 2 -20
15 -24 15 -6 17 -9 7 -21 -10 -12 -8 -16 9 -20 40 -11 39 -54 -1 -54 -36 0
-51 14 -39 37 6 10 8 24 4 29 -10 15 -65 24 -82 13 -8 -5 -11 -9 -7 -9 5 0 2
-7 -6 -14 -21 -21 -55 -17 -49 6 2 10 8 18 13 18 14 0 89 74 89 88 0 9 -14 11
-55 6 -50 -6 -55 -5 -55 12 0 29 49 55 75 41 11 -6 23 -10 28 -9z m-2783 -3
c0 -9 -9 -15 -21 -15 -18 0 -19 2 -9 15 7 8 16 15 21 15 5 0 9 -7 9 -15z m320
-45 c0 -5 -2 -10 -4 -10 -3 0 -8 5 -11 10 -3 6 -1 10 4 10 6 0 11 -4 11 -10z
m2672 -32 c-12 -12 -35 -1 -27 12 3 5 13 6 21 3 10 -4 12 -9 6 -15z m-52 2 c8
-5 12 -12 9 -15 -8 -8 -39 5 -39 16 0 11 11 11 30 -1z m-6 -59 c8 -13 -21 -34
-39 -27 -25 9 -18 36 9 36 14 0 27 -4 30 -9z m-137 -47 c-3 -3 -12 -4 -19 -1
-8 3 -5 6 6 6 11 1 17 -2 13 -5z m-547 -68 c0 -11 -33 -36 -47 -36 -11 0 -9 6
8 20 23 18 39 25 39 16z m-4050 -16 c0 -5 -4 -10 -10 -10 -5 0 -10 5 -10 10 0
6 5 10 10 10 6 0 10 -4 10 -10z m3420 -79 c0 -29 -14 -71 -24 -71 -15 0 -19
49 -5 66 13 16 29 18 29 5z m-1235 -31 c-3 -5 -10 -10 -16 -10 -5 0 -9 5 -9
10 0 6 7 10 16 10 8 0 12 -4 9 -10z m-2075 -42 c0 -5 -7 -8 -15 -8 -17 0 -18
2 -9 25 5 13 8 14 15 3 5 -7 9 -16 9 -20z m-999 -51 c-18 -18 -25 1 -11 30
l14 28 4 -24 c2 -13 -1 -28 -7 -34z m2806 -9 c-3 -8 -6 -5 -6 6 -1 11 2 17 5
13 3 -3 4 -12 1 -19z m1458 -8 c4 -6 -10 -29 -30 -51 -33 -37 -65 -94 -65
-117 0 -4 6 -16 13 -26 16 -21 47 -12 47 15 0 12 15 26 40 39 l40 20 4 -22 c3
-13 7 -54 11 -92 l6 -69 -62 7 c-84 10 -104 19 -119 58 -7 18 -22 43 -33 55
-32 36 -1 96 80 158 49 38 58 41 68 25z m-3248 -82 c-3 -7 -5 -2 -5 12 0 14 2
19 5 13 2 -7 2 -19 0 -25z m2070 -140 c-3 -8 -6 -5 -6 6 -1 11 2 17 5 13 3 -3
4 -12 1 -19z m1269 -191 c6 -17 -20 -80 -40 -97 -9 -7 -16 -20 -16 -30 0 -10
-8 -20 -17 -24 -10 -3 -25 -11 -34 -17 -9 -7 -24 -9 -33 -6 -21 8 -14 52 16
103 11 19 17 41 14 49 -4 10 2 19 17 25 33 13 87 12 93 -3z m-3196 -125 c0 -7
-4 -10 -10 -7 -5 3 -10 16 -10 28 0 18 2 19 10 7 5 -8 10 -21 10 -28z m3204
-225 c-2 -314 -6 -375 -44 -552 -6 -27 -19 -99 -30 -160 -39 -221 -44 -236
-106 -356 -13 -26 -24 -52 -24 -57 0 -6 -18 -37 -40 -68 -22 -32 -40 -61 -40
-67 0 -14 -40 -67 -51 -67 -5 0 -9 7 -9 16 0 32 -76 140 -152 215 -43 42 -78
82 -78 88 0 6 11 13 25 17 14 3 36 19 49 35 14 16 29 29 35 29 16 0 42 31 35
41 -3 6 -20 10 -38 9 -63 -4 -86 0 -86 14 0 8 -13 25 -29 39 -34 28 -31 38 10
30 24 -5 27 -3 22 16 -5 21 -4 21 37 6 54 -19 101 -20 94 -2 -5 14 53 37 94
37 11 0 22 7 26 15 3 8 15 15 26 15 47 0 140 67 140 101 0 26 -28 31 -109 19
-60 -8 -75 -8 -87 4 -16 16 -13 18 53 31 17 3 37 13 44 21 6 8 17 14 24 14 7
0 33 9 59 20 l46 21 0 52 c0 54 -16 89 -62 138 l-25 26 44 27 c24 14 48 26 53
26 10 0 50 54 50 67 0 5 -9 19 -20 31 -16 17 -32 22 -73 22 -29 0 -61 6 -71
13 -18 13 -17 16 15 48 19 19 42 55 52 81 10 26 34 66 52 90 19 24 35 49 35
56 0 6 4 12 9 12 5 0 13 9 16 20 3 11 12 20 18 20 9 0 12 -64 11 -253z m-1201
213 c-3 -11 -9 -18 -13 -15 -7 4 -7 18 -1 43 1 2 5 1 10 -2 5 -3 7 -15 4 -26z
m-1945 -19 c3 -8 -1 -12 -9 -9 -7 2 -15 10 -17 17 -3 8 1 12 9 9 7 -2 15 -10
17 -17z m-28 -64 c0 -5 -4 -5 -10 -2 -5 3 -10 14 -10 23 0 15 2 15 10 2 5 -8
10 -19 10 -23z m1891 -40 c-11 -10 -12 -8 -6 11 4 14 2 22 -5 22 -6 0 -8 5 -4
12 5 8 11 5 17 -10 8 -16 7 -26 -2 -35z m-51 28 c0 -8 -6 -15 -14 -15 -17 0
-28 14 -19 24 12 12 33 6 33 -9z m598 -17 l37 -31 -35 6 c-32 7 -60 29 -60 49
0 17 23 7 58 -24z m-2398 -13 c0 -8 -4 -15 -9 -15 -5 0 -11 7 -15 15 -3 9 0
15 9 15 8 0 15 -7 15 -15z m120 -56 c0 -6 -4 -7 -10 -4 -5 3 -10 11 -10 16 0
6 5 7 10 4 6 -3 10 -11 10 -16z m35 11 c3 -5 1 -10 -4 -10 -6 0 -11 5 -11 10
0 6 2 10 4 10 3 0 8 -4 11 -10z m2163 -65 c6 -27 21 -104 33 -169 l23 -119
-30 -23 c-16 -13 -33 -24 -39 -24 -15 -1 -62 -40 -48 -40 6 0 14 4 17 9 3 5
26 14 50 20 83 21 126 -21 73 -72 -31 -30 -84 -67 -96 -67 -5 0 -18 -10 -28
-23 -31 -39 -191 -149 -205 -141 -7 4 -10 4 -6 -1 8 -9 -58 -70 -76 -70 -6 -1
-33 -15 -61 -33 -27 -17 -55 -32 -62 -32 -6 0 -15 -9 -18 -21 -10 -32 -75 -99
-95 -99 -21 0 -36 -30 -20 -40 12 -7 8 -121 -5 -152 -5 -12 -2 -18 6 -19 16
-1 -40 -28 -58 -29 -7 0 -13 7 -13 15 0 24 -23 27 -73 10 -71 -24 -122 -12
-153 36 -13 21 -24 44 -24 51 0 7 -7 25 -14 40 -8 15 -25 73 -37 128 -22 97
-22 102 -5 161 14 52 25 69 82 123 36 34 91 77 122 96 31 18 93 57 137 85 44
29 100 63 125 77 25 14 71 42 104 64 32 21 73 48 91 59 19 12 42 28 52 36 10
9 30 19 46 23 15 3 27 12 27 19 0 7 10 21 21 31 15 12 18 21 11 28 -13 13 -63
-5 -88 -33 -27 -29 -34 -13 -13 31 20 41 54 69 61 49 6 -17 108 -23 108 -7 0
7 11 26 25 42 14 16 25 36 25 45 1 27 16 -8 28 -64z m102 45 c21 -11 46 -17
54 -14 25 9 20 -1 -35 -77 -30 -41 -55 -67 -60 -62 -5 5 -12 46 -16 91 -7 92
-5 94 57 62z m-2376 -24 c-15 -12 -16 -16 -5 -30 15 -18 1 -22 -16 -5 -16 16
-5 45 19 46 19 2 20 1 2 -11z m2880 -9 c-6 -16 -33 -31 -41 -23 -3 2 5 14 17
26 23 23 34 22 24 -3z m-2870 -90 c-8 -4 -19 -5 -25 -1 -8 4 -9 -1 -4 -16 5
-15 4 -20 -4 -16 -11 7 -15 48 -6 58 4 3 17 1 30 -6 19 -9 21 -13 9 -19z m176
-42 c0 -8 -7 -15 -15 -15 -13 0 -14 3 -3 15 16 18 18 18 18 0z m40 -65 c0 -5
-2 -10 -4 -10 -3 0 -8 5 -11 10 -3 6 -1 10 4 10 6 0 11 -4 11 -10z m-240 -66
c0 -7 -10 -9 -25 -6 -14 2 -23 7 -21 11 1 3 6 15 10 26 7 20 8 20 22 1 8 -11
14 -25 14 -32z m300 -9 c0 -8 -7 -15 -15 -15 -16 0 -20 12 -8 23 11 12 23 8
23 -8z m-946 -10 c19 -14 19 -15 -7 -15 -17 0 -27 5 -27 15 0 19 9 19 34 0z
m519 -12 c-7 -2 -19 -2 -25 0 -7 3 -2 5 12 5 14 0 19 -2 13 -5z m27 -66 c0 -8
9 -26 20 -40 11 -14 22 -46 25 -74 2 -26 2 -40 -1 -30 -4 13 -12 17 -25 14
-10 -3 -19 -1 -19 5 0 5 -5 6 -10 3 -6 -4 -8 -10 -5 -15 3 -4 -4 -6 -15 -3
-11 3 -20 9 -20 12 0 4 -25 6 -55 3 l-55 -4 0 41 c0 22 4 41 10 41 5 0 16 13
24 29 28 54 126 68 126 18z m-1286 -22 c11 -8 28 -15 38 -15 10 0 18 -4 18 -9
0 -5 13 -12 28 -16 29 -6 59 -42 45 -55 -11 -10 -128 -19 -141 -11 -14 8 -28
121 -16 121 5 0 18 -7 28 -15z m1976 -15 c0 -16 5 -18 30 -13 17 3 30 1 30 -5
0 -5 23 -19 50 -31 58 -25 94 -56 84 -73 -5 -7 0 -9 14 -6 12 4 22 2 22 -3 0
-5 9 -9 20 -9 11 0 20 -4 20 -10 0 -5 10 -10 22 -10 12 0 41 -9 65 -21 39 -19
46 -19 66 -6 14 9 29 11 42 6 11 -4 14 -8 6 -8 -11 -1 -11 -4 0 -17 12 -14 8
-15 -37 -9 -27 3 -74 11 -104 17 -30 5 -64 10 -75 10 -11 0 -14 2 -7 5 6 3 9
9 6 14 -3 6 -11 5 -20 -2 -18 -15 -107 7 -97 24 4 7 0 8 -11 4 -23 -9 -128 21
-120 34 3 6 13 8 21 4 13 -4 14 -3 3 10 -13 16 -35 21 -26 6 10 -16 -18 -18
-51 -5 -41 18 -46 27 -21 43 18 11 20 11 15 -3 -4 -10 -1 -16 8 -16 8 0 15 6
15 13 0 22 -18 40 -33 34 -11 -4 -14 -1 -10 9 5 13 19 18 50 17 6 0 9 6 6 15
-4 10 -2 13 5 8 7 -4 12 -16 12 -26z m-1059 -55 c1 -19 -20 -16 -31 4 -9 18
-8 20 11 13 11 -5 20 -12 20 -17z m879 1 c0 -3 -4 -8 -10 -11 -5 -3 -10 -1
-10 4 0 6 5 11 10 11 6 0 10 -2 10 -4z m94 -72 c21 -20 20 -50 0 -58 -13 -5
-14 -9 -4 -21 18 -22 4 -36 -26 -25 -13 5 -30 9 -36 7 -15 -3 -18 55 -4 66 7
5 6 10 -4 17 -12 8 -8 10 15 8 20 -2 29 1 28 10 -4 17 12 15 31 -4z m2176 -14
c0 -5 -5 -10 -11 -10 -5 0 -7 5 -4 10 3 6 8 10 11 10 2 0 4 -4 4 -10z m-2690
-47 c6 -8 6 -14 0 -18 -6 -3 -10 -22 -10 -41 0 -19 -4 -34 -10 -34 -5 0 -10
-7 -10 -15 0 -8 -6 -15 -13 -15 -8 0 -17 23 -24 63 -11 68 -8 87 13 87 8 0 14
6 14 13 0 6 7 3 15 -8 8 -11 19 -25 25 -32z m2330 40 c0 -16 -156 -153 -181
-158 -73 -16 -42 18 120 133 45 32 61 38 61 25z m-1050 -13 c0 -5 -9 -10 -19
-10 -20 0 -37 -17 -28 -27 3 -2 24 -7 47 -10 24 -3 39 -10 37 -17 -5 -15 -156
-11 -171 4 -6 7 -7 11 -1 10 6 -2 22 -2 38 -1 22 1 27 6 27 25 0 18 7 26 23
29 39 8 47 7 47 -3z m73 -25 c-3 -8 -12 -15 -19 -15 -12 0 -12 4 -4 20 12 23
32 18 23 -5z m-738 5 c3 -5 -1 -10 -9 -10 -9 0 -16 5 -16 10 0 6 4 10 9 10 6
0 13 -4 16 -10z m2045 -10 c0 -5 -4 -10 -10 -10 -5 0 -10 5 -10 10 0 6 5 10
10 10 6 0 10 -4 10 -10z m-1925 -21 c44 -11 114 -25 155 -30 41 -5 134 -17
205 -26 72 -9 144 -15 160 -14 l31 1 -1 -97 c0 -90 3 -106 38 -196 20 -54 48
-120 62 -147 14 -27 25 -52 25 -54 0 -3 -13 -3 -29 0 -30 6 -53 -12 -31 -26 8
-5 9 -10 1 -14 -5 -4 -19 -1 -30 6 -15 9 -24 9 -43 0 -23 -12 -23 -12 5 -7 19
4 27 1 27 -9 0 -9 -7 -12 -19 -9 -10 2 -25 -3 -35 -12 -9 -9 -16 -13 -16 -8 0
4 -7 0 -15 -10 -7 -11 -11 -25 -8 -33 3 -8 -1 -14 -8 -14 -11 -1 -11 -3 1 -13
11 -8 14 -22 10 -42 -5 -29 -8 -30 -68 -37 -76 -8 -102 -16 -102 -30 0 -6 25
-41 55 -78 l55 -67 -26 -63 c-14 -34 -23 -68 -20 -76 6 -16 98 -44 124 -37 11
2 23 0 26 -6 12 -19 26 -12 26 13 0 20 4 23 23 18 19 -5 20 -3 9 10 -9 12 -24
15 -52 11 -21 -3 -55 -2 -75 1 -34 7 -36 9 -30 34 3 15 13 38 21 50 14 22 16
22 28 6 11 -15 13 -15 19 -1 5 14 76 42 85 33 2 -2 4 -22 5 -45 1 -22 7 -43
14 -45 17 -7 26 45 13 78 -5 15 -6 34 -2 42 12 21 51 -35 54 -78 3 -27 -1 -34
-18 -36 -28 -4 -31 -52 -4 -52 25 0 35 -45 15 -73 -19 -28 -19 -66 1 -105 16
-33 27 -190 14 -207 -4 -5 -4 -30 0 -55 4 -25 8 -37 9 -27 2 34 26 11 34 -34
4 -24 11 -57 15 -74 6 -26 -1 -129 -7 -115 -2 3 -5 34 -7 70 -6 76 -23 101
-61 91 -22 -6 -29 -18 -45 -72 -10 -35 -18 -75 -18 -88 0 -13 -2 -22 -5 -19
-4 4 -6 103 -5 243 1 11 -1 42 -3 68 -3 39 0 50 15 58 10 5 18 18 18 29 0 10
9 22 21 25 19 6 20 12 14 53 -4 26 -9 50 -11 54 -7 10 -48 -3 -71 -24 -19 -18
-40 -21 -177 -24 -119 -4 -156 -2 -163 8 -16 25 -92 78 -112 78 -12 0 -21 5
-21 10 0 6 4 10 9 10 5 0 4 17 -1 40 -8 32 -15 40 -34 40 -29 0 -35 10 -25 46
6 23 13 28 32 26 l24 -2 -22 16 c-13 9 -23 25 -23 35 0 11 -4 19 -10 19 -5 0
-7 7 -4 15 4 8 -1 27 -11 41 -9 14 -16 40 -15 57 3 54 1 67 -14 67 -8 0 -16 7
-20 15 -3 9 0 15 9 15 8 0 15 4 15 10 0 5 28 -8 63 -30 81 -52 153 -90 169
-90 7 0 42 -14 76 -30 58 -27 82 -31 82 -12 0 7 -62 38 -165 82 -62 26 -183
118 -210 159 -11 17 -25 31 -30 31 -7 0 -11 42 -11 115 0 106 2 114 18 109 14
-4 18 0 18 18 0 30 -10 44 -37 52 -24 8 -30 21 -13 31 6 3 10 0 10 -7 0 -7 5
-5 11 6 9 14 8 20 -1 26 -7 4 -9 13 -6 19 4 6 -3 21 -16 32 -16 14 -19 22 -10
25 19 9 14 32 -9 45 -15 8 -18 14 -10 22 18 18 13 47 -9 47 -22 0 -26 20 -8
38 9 9 9 15 0 24 -9 9 -12 8 -12 -7 0 -17 -2 -17 -10 -5 -6 10 -5 17 5 23 8 4
15 15 15 22 0 8 3 14 8 13 4 -2 8 0 10 5 5 17 1 27 -13 27 -8 0 -15 5 -15 10
0 13 1 13 95 -11z m388 -6 c-7 -2 -19 -2 -25 0 -7 3 -2 5 12 5 14 0 19 -2 13
-5z m-547 -114 l6 -75 -40 1 c-47 1 -64 12 -42 25 13 8 13 10 -1 10 -9 0 -22
-7 -29 -15 -19 -23 -60 -18 -86 10 -21 23 -22 25 -4 25 10 0 21 4 25 10 3 5
12 7 19 4 8 -3 18 7 26 25 7 17 20 32 29 32 9 1 21 2 26 4 6 1 18 3 28 3 9 1
17 10 17 19 0 11 3 13 9 8 6 -6 13 -44 17 -86z m-1619 40 c24 -11 43 -25 43
-29 0 -5 -21 -27 -46 -49 -37 -32 -50 -39 -64 -31 -33 17 -60 62 -60 96 0 33
1 34 42 34 23 0 61 -9 85 -21z m1230 -283 c-39 -41 -68 -61 -53 -37 3 5 -4 11
-17 15 -33 9 -37 8 -37 -9 0 -8 9 -15 20 -15 11 0 20 -5 20 -10 0 -6 -13 -8
-32 -5 -45 8 -52 15 -31 31 10 7 13 14 7 14 -7 0 -14 11 -16 24 -6 32 31 66
71 66 17 0 31 4 31 10 0 5 17 26 38 48 l37 38 3 -61 c3 -61 2 -63 -41 -109z
m219 153 c23 -22 22 -49 -1 -49 -7 0 -15 -7 -19 -15 -3 -8 -13 -15 -21 -15 -9
0 -13 5 -10 10 3 6 1 10 -6 10 -7 0 -9 8 -5 23 4 12 9 29 11 37 2 8 4 16 4 18
3 9 28 -1 47 -19z m1987 -5 c3 -3 3 -12 0 -20 -6 -17 -118 -20 -128 -4 -4 6
11 10 37 10 24 0 50 5 58 10 18 11 24 12 33 4z m-2073 -143 c0 -5 -9 -11 -19
-14 -14 -3 -18 -1 -14 9 6 15 33 19 33 5z m-1450 -52 c-7 -11 -14 -18 -17 -15
-3 3 0 12 7 21 18 21 23 19 10 -6z m-13 -51 c-3 -8 -6 -5 -6 6 -1 11 2 17 5
13 3 -3 4 -12 1 -19z m1709 -25 c-10 -10 -19 5 -10 18 6 11 8 11 12 0 2 -7 1
-15 -2 -18z m-1719 -15 c-3 -8 -6 -5 -6 6 -1 11 2 17 5 13 3 -3 4 -12 1 -19z
m1063 -19 c0 6 7 11 15 11 8 0 15 -6 15 -12 0 -8 -17 -14 -42 -16 -36 -2 -39
-1 -28 13 10 12 16 13 26 4 10 -8 14 -8 14 0z m256 3 c19 -13 25 -42 8 -42 -8
0 -13 4 -10 8 3 5 -8 6 -25 4 -24 -4 -29 -1 -29 17 0 15 6 21 23 21 12 0 27
-4 33 -8z m1634 -35 c8 -3 -4 -6 -27 -6 -24 -1 -43 4 -43 9 0 6 7 10 15 10 8
0 15 5 15 12 0 7 5 6 13 -4 6 -9 19 -18 27 -21z m-2056 -4 c4 -3 -19 -20 -53
-38 -33 -18 -74 -47 -90 -64 -30 -32 -45 -38 -56 -21 -9 15 73 120 105 133 15
6 78 -1 94 -10z m1880 8 c3 -5 -1 -12 -10 -15 -22 -9 -24 -8 -24 9 0 16 25 21
34 6z m131 -30 c3 -5 1 -12 -5 -16 -5 -3 -10 1 -10 9 0 18 6 21 15 7z m-1899
-48 c-10 -10 -19 5 -10 18 6 11 8 11 12 0 2 -7 1 -15 -2 -18z m191 1 c7 -10
19 -13 32 -9 12 3 21 2 21 -3 0 -14 -25 -22 -50 -15 -14 4 -28 -2 -42 -17
l-21 -22 48 4 c40 3 53 -1 77 -22 33 -29 36 -40 8 -33 -22 6 -23 3 -14 -21 3
-9 12 -16 19 -16 15 0 28 -62 24 -117 -2 -21 0 -44 4 -50 4 -6 7 -26 6 -45 -1
-26 12 -128 23 -175 4 -22 -27 -106 -48 -128 -13 -14 -24 -32 -24 -40 0 -8
-13 -22 -29 -31 -17 -10 -32 -28 -35 -40 -4 -13 -15 -28 -26 -34 -11 -6 -20
-15 -20 -21 0 -13 -36 -65 -74 -106 -24 -26 -38 -33 -65 -32 -20 0 -30 3 -23
6 6 2 10 9 6 14 -10 17 -24 -1 -24 -31 0 -34 -43 -83 -48 -56 -2 9 -8 16 -13
16 -6 0 -7 -9 -4 -20 5 -14 -2 -33 -21 -58 -39 -52 -166 -172 -182 -172 -7 0
-11 -4 -8 -9 9 -13 -21 -34 -36 -25 -17 11 -48 13 -48 3 0 -4 7 -9 15 -13 25
-9 17 -22 -30 -52 -25 -15 -45 -32 -45 -37 0 -5 -11 -18 -25 -29 -14 -11 -25
-25 -25 -32 0 -13 -60 -62 -72 -58 -5 1 -8 -4 -8 -11 0 -6 -14 -23 -30 -36
-17 -13 -30 -29 -30 -37 0 -8 -6 -14 -13 -14 -7 0 -29 -18 -47 -40 -40 -48
-49 -46 -19 4 l22 37 -29 30 c-15 16 -33 29 -39 29 -8 0 -12 18 -11 52 1 47
-1 53 -24 59 l-25 7 25 1 c18 1 21 4 11 10 -9 6 -5 10 16 13 26 3 29 1 25 -18
-5 -28 14 -40 35 -22 14 11 16 11 8 -2 -8 -13 -6 -13 7 -2 15 12 15 15 -3 33
-11 11 -17 24 -14 29 4 6 -1 10 -10 10 -11 0 -15 5 -11 15 3 8 1 26 -4 40 -8
21 -7 25 10 25 15 0 20 7 20 25 0 20 8 29 33 40 18 8 25 14 15 15 -17 0 -23
16 -19 48 1 6 -2 12 -8 12 -5 0 -7 9 -4 20 3 11 11 20 19 20 7 0 11 6 8 13 -2
7 4 24 16 37 23 26 25 37 8 42 -13 5 -2 28 13 28 6 0 7 -4 4 -10 -11 -17 7
-11 21 8 7 9 14 12 14 5 0 -8 12 -10 38 -6 20 3 39 8 42 10 10 9 -27 23 -50
18 -24 -5 -26 -3 -27 34 -2 33 1 40 19 43 12 2 23 9 26 16 2 7 -2 10 -12 6 -9
-3 -16 -2 -16 4 0 6 16 16 35 22 45 15 46 41 3 79 -31 28 -32 59 -1 47 25 -10
35 5 17 25 -16 18 -16 19 3 19 11 0 26 7 33 15 9 10 9 15 1 15 -6 0 -11 7 -11
15 0 14 12 20 33 16 4 -1 22 12 40 29 18 16 26 30 18 30 -10 0 -11 3 -2 14 9
11 9 16 -1 22 -28 18 -48 14 -54 -11 -6 -25 -24 -35 -24 -14 0 25 22 49 46 49
13 0 27 6 30 14 5 14 50 11 70 -5 11 -9 54 40 54 61 0 17 -17 11 -23 -9 -3
-14 -11 -17 -31 -14 -14 3 -29 10 -32 15 -4 6 -17 -2 -30 -18 -35 -40 -40 -23
-9 33 30 54 94 125 109 120 6 -2 9 -27 7 -55 -1 -29 0 -52 3 -52 3 0 13 16 22
35 10 23 23 35 36 35 23 0 68 38 68 58 0 7 13 12 30 12 17 0 30 4 30 9 0 10
-34 21 -68 21 -27 0 -39 24 -22 45 7 8 10 22 6 30 -4 11 1 15 20 15 14 0 23 4
20 9 -7 10 22 24 34 16 4 -3 10 2 14 10 3 8 17 15 31 15 14 0 25 4 25 8 0 5
17 14 38 20 22 7 51 23 66 37 14 13 33 22 41 19 8 -4 23 -3 33 2 14 6 11 8
-13 13 -17 4 -31 14 -33 23 -3 16 3 17 45 12 26 -3 53 -12 60 -20z m403 -10
c0 -8 -4 -14 -10 -14 -5 0 -10 2 -10 4 0 2 -3 12 -6 20 -5 12 -2 15 10 10 9
-3 16 -12 16 -20z m1373 19 c-20 -7 -15 -20 8 -26 12 -3 18 -10 14 -16 -7 -12
17 -41 34 -41 6 0 12 -6 13 -12 0 -7 2 -17 3 -23 2 -5 3 -14 4 -20 1 -5 8 -1
16 9 15 19 15 19 15 -2 0 -12 -9 -26 -21 -33 -15 -8 -18 -14 -10 -22 7 -7 14
-7 24 1 11 10 16 5 25 -26 27 -92 29 -88 -42 -88 -42 0 -73 -6 -89 -17 -36
-23 -129 -33 -144 -16 -19 25 -22 70 -4 77 16 6 40 31 41 43 0 3 -20 5 -44 5
-43 -1 -66 8 -53 20 4 4 13 2 20 -5 11 -9 17 -8 27 4 11 13 8 15 -16 16 -16 1
-37 1 -46 0 -10 -1 -18 4 -18 13 0 10 9 16 23 16 49 0 67 5 67 17 0 7 -4 13
-8 13 -12 0 -10 94 2 102 6 4 16 2 23 -4 7 -5 24 -7 38 -4 17 4 31 1 41 -9 9
-8 21 -12 27 -8 8 5 8 8 0 10 -20 7 -2 33 21 32 11 0 15 -3 9 -6z m-476 -35
c-3 -8 -6 -5 -6 6 -1 11 2 17 5 13 3 -3 4 -12 1 -19z m-817 -4 c0 -17 -22 -14
-28 4 -2 7 3 12 12 12 9 0 16 -7 16 -16z m1086 -10 c-9 -8 -16 -24 -16 -35 0
-23 -18 -24 -48 -3 -27 18 -21 34 11 28 12 -2 16 -1 8 2 -18 9 5 24 37 24 21
0 22 -1 8 -16z m-1041 -44 c8 -13 -39 -34 -59 -27 -25 10 -19 25 12 30 15 2
30 5 34 6 4 0 10 -3 13 -9z m950 -30 c3 -5 1 -10 -4 -10 -6 0 -11 5 -11 10 0
6 2 10 4 10 3 0 8 -4 11 -10z m-925 -10 c0 -5 -2 -10 -4 -10 -3 0 -8 5 -11 10
-3 6 -1 10 4 10 6 0 11 -4 11 -10z m-380 -30 c0 -5 -5 -10 -11 -10 -5 0 -7 5
-4 10 3 6 8 10 11 10 2 0 4 -4 4 -10z m260 -10 c0 -5 -7 -10 -15 -10 -8 0 -15
5 -15 10 0 6 7 10 15 10 8 0 15 -4 15 -10z m-250 -17 c0 -10 -20 -40 -20 -31
0 3 -3 13 -6 22 -4 11 -1 16 10 16 9 0 16 -3 16 -7z m-590 -13 c0 -5 -7 -10
-16 -10 -8 0 -12 5 -9 10 3 6 10 10 16 10 5 0 9 -4 9 -10z m1966 -7 c19 -25
17 -32 -7 -26 -15 4 -17 8 -8 14 10 6 7 11 -11 18 -20 8 -21 10 -6 10 10 1 25
-7 32 -16z m-424 -38 c2 -16 -2 -19 -22 -17 -14 2 -31 11 -38 20 -11 15 -9 18
15 23 32 6 40 2 45 -26z m-1553 -13 c0 -11 -3 -12 -6 -4 -2 6 -14 12 -26 13
-21 0 -21 1 -2 8 25 10 35 5 34 -17z m950 -17 l0 -20 -9 20 c-5 11 -9 27 -9
35 -1 13 0 13 9 0 5 -8 9 -24 9 -35z m1083 33 c-9 -9 -15 -9 -24 0 -9 9 -7 12
12 12 19 0 21 -3 12 -12z m-1182 -23 c0 -8 -4 -15 -10 -15 -23 0 -8 -19 17
-22 26 -3 26 -4 9 -20 -23 -24 -33 -23 -51 6 -14 20 -14 28 -3 45 15 24 38 28
38 6z m1103 8 c4 -3 0 -17 -8 -30 -14 -21 -14 -24 0 -29 19 -8 19 -38 0 -54
-13 -10 -15 -9 -15 10 0 14 -5 20 -13 17 -10 -4 -14 6 -14 39 0 41 4 46 38 53
3 0 9 -2 12 -6z m-403 -33 c0 -5 -4 -10 -10 -10 -5 0 -10 5 -10 10 0 6 5 10
10 10 6 0 10 -4 10 -10z m463 3 c3 -5 -1 -14 -8 -20 -11 -10 -13 -9 -12 7 1
20 12 26 20 13z m-1043 -23 c0 -5 -4 -10 -10 -10 -5 0 -10 5 -10 10 0 6 5 10
10 10 6 0 10 -4 10 -10z m700 -10 c0 -22 -20 -26 -51 -10 -30 16 -23 30 16 30
28 0 35 -4 35 -20z m-832 -47 c16 -16 15 -16 -8 -10 -14 4 -29 7 -33 7 -5 0
-5 5 -2 10 9 15 24 12 43 -7z m-42 -80 c-10 -10 -19 5 -10 18 6 11 8 11 12 0
2 -7 1 -15 -2 -18z m1644 -103 c0 -5 -4 -10 -9 -10 -6 0 -13 5 -16 10 -3 6 1
10 9 10 9 0 16 -4 16 -10z m-1505 -10 c-3 -5 -10 -10 -16 -10 -5 0 -9 5 -9 10
0 6 7 10 16 10 8 0 12 -4 9 -10z m1475 -25 c0 -8 -4 -15 -10 -15 -5 0 -10 7
-10 15 0 8 5 15 10 15 6 0 10 -7 10 -15z m-1525 -45 c11 -17 -5 -32 -21 -19
-7 6 -11 15 -8 20 7 12 21 11 29 -1z m128 -36 c15 -1 27 4 27 9 0 6 2 8 5 5
10 -10 -27 -69 -60 -93 -18 -14 -38 -39 -45 -55 -7 -17 -18 -30 -24 -30 -34 0
-86 14 -86 22 0 6 11 8 23 4 13 -3 32 0 42 8 16 12 17 18 7 40 -6 15 -7 28 -2
31 5 3 6 15 0 29 -5 13 -4 29 1 37 6 10 9 10 9 2 0 -7 7 -13 15 -13 8 0 15 5
15 12 0 6 6 3 14 -8 8 -10 18 -15 22 -11 5 4 3 12 -4 16 -8 5 -10 15 -5 27 6
17 8 17 13 -6 4 -19 13 -25 33 -26z m81 37 c3 -5 -3 -11 -13 -14 -14 -3 -18
-1 -14 9 6 16 19 18 27 5z m-404 -31 c0 -5 -4 -10 -10 -10 -5 0 -10 5 -10 10
0 6 5 10 10 10 6 0 10 -4 10 -10z m190 -60 c0 -5 -4 -10 -9 -10 -6 0 -13 5
-16 10 -3 6 1 10 9 10 9 0 16 -4 16 -10z m-25 -20 c3 -5 1 -10 -4 -10 -6 0
-11 5 -11 10 0 6 2 10 4 10 3 0 8 -4 11 -10z m390 -19 c3 -5 1 -12 -5 -16 -5
-3 -10 1 -10 9 0 18 6 21 15 7z m-2269 -75 c28 -24 43 -47 52 -81 7 -27 26
-64 43 -83 17 -19 28 -41 25 -49 -3 -8 1 -24 9 -36 20 -29 19 -59 -4 -79 -10
-9 -38 -41 -61 -72 -23 -31 -46 -56 -50 -56 -16 0 -18 14 -5 34 17 24 20 40 5
31 -5 -3 -10 -1 -10 4 0 6 5 11 10 11 19 0 34 48 21 64 -14 16 -88 14 -122 -4
-28 -16 -169 -24 -169 -11 0 6 7 11 15 11 24 0 17 28 -7 32 -20 3 -23 8 -20
40 2 32 0 37 -14 31 -13 -5 -15 -2 -10 14 5 14 -1 23 -20 34 -14 7 -30 23 -35
34 -5 11 -15 28 -21 38 -11 15 -9 21 17 42 17 14 42 32 57 40 36 20 140 42
204 44 44 1 56 -3 90 -33z m674 -6 c0 -5 -4 -10 -10 -10 -5 0 -10 5 -10 10 0
6 5 10 10 10 6 0 10 -4 10 -10z m30 -3 c0 -2 -13 -18 -29 -36 -29 -33 -29 -33
-41 -11 -6 12 -8 25 -4 28 4 4 9 1 11 -5 3 -7 10 -13 16 -13 5 0 7 3 4 7 -4 3
3 12 16 19 27 15 27 15 27 11z m825 -7 c3 -5 1 -10 -4 -10 -6 0 -11 5 -11 10
0 6 2 10 4 10 3 0 8 -4 11 -10z m4526 -331 l39 -41 -39 -28 c-43 -32 -81 -80
-81 -104 0 -19 19 -103 31 -133 8 -22 6 -23 -44 -24 -133 -3 -220 -8 -311 -18
-85 -10 -102 -9 -116 4 -9 8 -21 15 -27 15 -13 0 -25 43 -18 62 3 8 27 20 53
27 88 24 133 43 155 66 12 13 45 31 72 40 54 18 115 69 115 96 0 11 11 20 31
24 16 4 44 23 62 42 17 19 33 30 35 24 2 -5 21 -29 43 -52z m-1241 -39 c0 -26
16 -50 33 -50 4 0 5 5 1 12 -4 7 -3 8 4 4 16 -10 2 -38 -15 -32 -8 3 -21 6
-28 6 -8 0 -15 10 -17 22 -2 14 -16 29 -36 38 -40 19 -34 28 18 26 36 -1 40
-3 40 -26z m-4831 -31 c-16 -10 -23 -4 -14 10 3 6 11 8 17 5 6 -4 5 -9 -3 -15z
m4991 1 c0 -11 -4 -20 -10 -20 -5 0 -10 9 -10 20 0 11 5 20 10 20 6 0 10 -9
10 -20z m-5340 -16 c0 -8 -5 -12 -10 -9 -6 4 -8 11 -5 16 9 14 15 11 15 -7z
m2410 0 c0 -8 -4 -12 -10 -9 -5 3 -10 10 -10 16 0 5 5 9 10 9 6 0 10 -7 10
-16z m2681 0 c18 -17 15 -44 -5 -44 -6 0 -17 14 -23 30 -13 34 -1 40 28 14z
m-242 -56 c-22 -30 -23 -31 -32 -10 -13 28 -2 52 23 52 11 0 21 6 21 13 1 6 3
4 6 -5 2 -10 -6 -32 -18 -50z m-5099 31 c0 -6 -4 -7 -10 -4 -5 3 -10 11 -10
16 0 6 5 7 10 4 6 -3 10 -11 10 -16z m2645 -77 c-9 -25 -30 -6 -31 29 0 19 2
38 4 43 7 13 33 -56 27 -72z m4175 -2 c-20 -13 -57 -13 -44 -1 10 10 46 19 54
14 2 -2 -2 -8 -10 -13z m141 4 c10 -13 10 -17 -2 -25 -8 -5 -17 -9 -21 -9 -4
0 -10 -11 -14 -25 -7 -30 -15 -31 -39 -5 -10 11 -24 20 -31 20 -25 0 -11 45
16 51 45 12 77 9 91 -7z m-6526 -53 c3 -5 1 -12 -5 -16 -5 -3 -10 1 -10 9 0
18 6 21 15 7z m4996 -164 c-10 -9 -11 -8 -5 6 3 10 9 15 12 12 3 -3 0 -11 -7
-18z m-351 -27 c0 -5 -5 -10 -11 -10 -5 0 -7 5 -4 10 3 6 8 10 11 10 2 0 4 -4
4 -10z m138 -35 c-4 -33 -22 -33 -26 0 -2 18 1 25 13 25 12 0 15 -7 13 -25z
m32 15 c0 -5 -4 -10 -10 -10 -5 0 -10 5 -10 10 0 6 5 10 10 10 6 0 10 -4 10
-10z m125 0 c-3 -5 -19 -10 -36 -10 -16 0 -29 5 -29 10 0 6 16 10 36 10 21 0
33 -4 29 -10z m1149 -40 c8 -5 21 -8 29 -4 19 7 35 -7 70 -63 14 -23 34 -44
44 -46 10 -3 30 -8 46 -11 21 -5 27 -12 27 -34 1 -15 2 -50 4 -79 3 -46 1 -52
-18 -55 -26 -5 -133 5 -141 14 -3 3 -1 17 6 31 9 21 8 28 -10 48 -45 50 -51
59 -48 69 4 16 -74 79 -120 96 -23 9 -43 20 -43 25 0 24 126 33 154 9z m-2166
-38 c4 -24 -7 -29 -26 -10 -18 18 -15 40 6 36 9 -2 18 -13 20 -26z m961 -83
c-16 -10 -23 -4 -14 10 3 6 11 8 17 5 6 -4 5 -9 -3 -15z m-939 -229 c0 -5 -7
-7 -15 -4 -8 4 -15 8 -15 10 0 2 7 4 15 4 8 0 15 -4 15 -10z m-1820 -10 c0 -5
-2 -10 -4 -10 -3 0 -8 5 -11 10 -3 6 -1 10 4 10 6 0 11 -4 11 -10z m4474 -9
c7 -11 -43 -45 -52 -35 -4 4 -2 9 5 11 7 2 9 11 6 19 -6 16 32 21 41 5z
m-3087 -17 c-3 -3 -12 -4 -19 -1 -8 3 -5 6 6 6 11 1 17 -2 13 -5z m2977 -13
c12 -13 14 -24 8 -41 l-9 -24 -7 27 c-3 15 -13 27 -21 27 -8 0 -15 7 -15 15 0
21 23 19 44 -4z m-2949 -1 c-3 -5 3 -10 14 -10 24 0 27 -10 9 -28 -15 -15 -41
-15 -56 0 -9 9 -8 16 6 29 18 19 37 25 27 9z m-1090 -80 c4 -16 4 -34 0 -40
-9 -15 -38 -12 -32 4 3 7 1 18 -5 24 -8 8 -8 16 2 27 18 22 28 19 35 -15z
m1535 5 c0 -8 -9 -15 -19 -15 -11 0 -26 -3 -35 -6 -9 -3 -16 -2 -16 4 0 6 12
15 28 20 38 14 42 14 42 -3z m-434 -30 c-5 -14 -9 -15 -21 -5 -12 10 -13 16
-4 27 15 18 34 1 25 -22z m44 -15 c0 -5 -4 -10 -9 -10 -6 0 -13 5 -16 10 -3 6
1 10 9 10 9 0 16 -4 16 -10z m11 -33 c-1 -12 -15 -9 -19 4 -3 6 1 10 8 8 6 -3
11 -8 11 -12z m-36 -7 c3 -5 -1 -10 -9 -10 -9 0 -16 5 -16 10 0 6 4 10 9 10 6
0 13 -4 16 -10z"/>
<path d="M543 5943 c-20 -8 -15 -23 7 -23 11 0 20 7 20 15 0 15 -6 17 -27 8z"/>
<path d="M640 5899 c0 -5 5 -7 10 -4 6 3 10 8 10 11 0 2 -4 4 -10 4 -5 0 -10
-5 -10 -11z"/>
<path d="M1660 4931 c0 -5 5 -13 10 -16 6 -3 10 -2 10 4 0 5 -4 13 -10 16 -5
3 -10 2 -10 -4z"/>
<path d="M1851 4913 c0 -25 1 -26 9 -8 12 27 12 35 0 35 -5 0 -10 -12 -9 -27z"/>
<path d="M1870 4780 c0 -5 7 -10 16 -10 8 0 12 5 9 10 -3 6 -10 10 -16 10 -5
0 -9 -4 -9 -10z"/>
<path d="M3858 5073 c6 -2 18 -2 25 0 6 3 1 5 -13 5 -14 0 -19 -2 -12 -5z"/>
<path d="M3720 4805 c0 -8 2 -15 4 -15 2 0 6 7 10 15 3 8 1 15 -4 15 -6 0 -10
-7 -10 -15z"/>
<path d="M4169 4723 c-58 -42 -181 -103 -208 -103 -10 0 -26 -8 -37 -18 -10
-10 -44 -30 -75 -45 -31 -15 -64 -36 -74 -47 -10 -11 -23 -20 -28 -20 -6 0
-18 -7 -28 -16 -16 -14 -18 -14 -24 5 -7 24 -35 29 -35 6 0 -7 -8 -18 -17 -24
-15 -8 -16 -13 -5 -30 7 -12 9 -21 4 -21 -4 0 -16 14 -25 30 -10 17 -25 30
-33 30 -18 0 -18 -17 1 -36 11 -12 12 -20 5 -35 -14 -26 -7 -35 36 -49 40 -13
57 -2 47 29 -5 13 -3 14 7 4 8 -7 19 -9 29 -4 9 5 63 11 121 14 80 4 107 9
116 22 6 8 16 15 20 14 25 -4 64 2 60 10 -3 5 -29 7 -58 6 -29 -1 -45 -1 -35
2 9 2 17 11 17 18 0 23 35 36 66 25 21 -8 31 -7 44 5 9 8 24 15 33 15 9 0 19
5 22 11 5 7 14 4 27 -8 19 -17 20 -17 33 0 7 9 19 15 27 12 9 -4 22 1 31 9 9
9 25 16 36 16 28 0 27 18 -1 22 -29 4 -34 24 -8 31 11 3 20 12 20 22 0 10 7
15 18 13 14 -2 17 4 16 34 -1 21 -7 44 -14 53 -18 21 -101 20 -131 -2z m56
-163 c-3 -5 -11 -10 -16 -10 -6 0 -7 5 -4 10 3 6 11 10 16 10 6 0 7 -4 4 -10z"/>
<path d="M3660 4689 c-10 -17 -14 -18 -28 -8 -14 11 -15 11 -4 -1 6 -8 12 -25
12 -39 0 -26 0 -26 16 4 16 31 26 65 19 65 -2 0 -9 -9 -15 -21z"/>
<path d="M4857 4663 c-8 -10 -19 -30 -22 -45 -4 -16 -13 -28 -19 -28 -7 0 -18
-12 -25 -26 -6 -15 -14 -24 -17 -21 -8 8 6 67 15 67 4 0 17 10 30 21 34 32 11
48 -28 19 -48 -34 -64 -81 -65 -186 0 -83 2 -95 27 -133 15 -22 27 -44 27 -47
0 -16 86 -193 117 -242 18 -29 33 -57 33 -62 0 -6 4 -10 10 -10 18 0 23 -49 7
-73 -11 -17 -26 -24 -50 -25 -52 -2 -130 -22 -140 -35 -7 -9 -10 -9 -14 1 -2
6 -8 10 -13 7 -4 -2 -15 4 -25 15 -10 11 -15 20 -11 20 3 0 0 10 -9 23 -8 13
-12 27 -8 30 3 4 -4 7 -16 7 -19 0 -20 -3 -10 -21 8 -15 8 -24 0 -32 -18 -18
-12 -43 14 -57 14 -7 25 -16 25 -20 0 -3 6 -15 14 -25 13 -18 93 -35 164 -35
12 0 22 -5 22 -10 0 -22 41 -8 62 20 12 17 27 30 34 30 9 0 10 7 1 29 -9 24
-7 34 11 63 29 47 28 60 -8 100 -17 18 -44 59 -61 92 -17 32 -40 74 -52 95
-39 67 -66 126 -67 144 0 9 -4 17 -8 17 -15 0 -35 77 -28 105 4 17 3 24 -4 20
-6 -4 -10 6 -10 25 0 17 4 29 9 25 5 -3 15 11 22 30 7 19 15 35 19 35 16 0 60
50 60 69 0 11 5 21 10 21 6 0 10 5 10 10 0 15 -15 12 -33 -7z m-33 -838 c-10
-8 -26 -14 -34 -15 -8 0 -2 9 15 20 33 22 49 18 19 -5z m41 -55 c-3 -5 -10
-10 -16 -10 -5 0 -9 5 -9 10 0 6 7 10 16 10 8 0 12 -4 9 -10z"/>
<path d="M3590 4610 c-8 -5 -12 -12 -9 -15 4 -3 12 1 19 10 14 17 11 19 -10 5z"/>
<path d="M5280 4600 c0 -11 4 -20 9 -20 5 0 7 9 4 20 -3 11 -7 20 -9 20 -2 0
-4 -9 -4 -20z"/>
<path d="M3630 4604 c0 -12 -36 -27 -57 -25 -20 3 -15 -17 6 -24 20 -6 71 10
71 22 0 13 -20 39 -20 27z"/>
<path d="M3530 4540 c0 -5 5 -10 10 -10 6 0 10 5 10 10 0 6 -4 10 -10 10 -5 0
-10 -4 -10 -10z"/>
<path d="M5300 4510 c0 -5 5 -10 11 -10 5 0 7 5 4 10 -3 6 -8 10 -11 10 -2 0
-4 -4 -4 -10z"/>
<path d="M4192 4503 c-15 -6 -6 -23 14 -23 8 0 14 7 14 15 0 15 -6 17 -28 8z"/>
<path d="M4075 4460 c-3 -5 -2 -10 4 -10 5 0 13 5 16 10 3 6 2 10 -4 10 -5 0
-13 -4 -16 -10z"/>
<path d="M4360 4439 c0 -7 15 -26 33 -44 17 -17 31 -38 29 -46 -3 -16 34 -56
43 -47 11 10 -9 71 -24 75 -9 2 -27 20 -40 39 -24 34 -41 44 -41 23z"/>
<path d="M4805 4410 c-3 -5 1 -10 9 -10 9 0 16 5 16 10 0 6 -4 10 -9 10 -6 0
-13 -4 -16 -10z"/>
<path d="M3666 4315 c-3 -8 -12 -12 -20 -9 -9 3 -22 -1 -31 -9 -21 -22 -19
-30 5 -17 16 9 22 8 26 -5 7 -16 74 -22 74 -6 0 5 8 12 18 14 16 4 16 5 0 6
-11 1 -18 9 -18 21 0 24 -45 28 -54 5z m51 -31 c-3 -3 -12 -4 -19 -1 -8 3 -5
6 6 6 11 1 17 -2 13 -5z"/>
<path d="M4470 4279 c0 -5 5 -7 10 -4 6 3 10 8 10 11 0 2 -4 4 -10 4 -5 0 -10
-5 -10 -11z"/>
<path d="M3566 4213 c-11 -11 -6 -23 8 -23 8 0 17 4 20 9 7 10 -19 23 -28 14z"/>
<path d="M4311 4209 c-14 -5 -31 -7 -38 -4 -8 2 -11 0 -8 -6 7 -10 -41 -54
-60 -54 -9 -1 -76 -30 -127 -56 -21 -11 -98 -12 -81 -1 6 4 -10 7 -37 7 -30 0
-46 -4 -43 -11 2 -6 -10 -10 -29 -10 -18 0 -41 -4 -50 -8 -12 -5 -18 -4 -18 4
0 7 8 19 18 27 15 13 15 13 -8 7 -36 -9 -47 -21 -47 -49 0 -22 2 -24 15 -13
13 11 14 9 8 -16 -9 -36 6 -47 47 -35 35 10 42 6 34 -15 -4 -9 -14 -12 -26 -9
-29 8 -26 -11 4 -25 30 -14 49 -8 63 21 6 13 11 16 11 8 1 -8 -6 -23 -16 -33
-22 -24 -11 -33 26 -20 26 9 31 8 31 -4 0 -8 -4 -12 -10 -9 -6 3 -7 -1 -4 -9
3 -9 14 -16 23 -16 18 1 72 29 56 30 -5 0 -3 4 5 10 9 6 17 5 22 -3 5 -8 14
-7 35 3 15 8 31 16 35 17 4 2 11 -11 15 -28 8 -29 10 -30 25 -16 9 9 14 26 11
40 -3 14 0 28 6 31 8 5 8 13 0 28 -14 26 6 52 21 28 5 -8 8 -19 7 -25 -5 -13
34 -55 50 -55 10 0 12 9 7 35 -4 22 -2 35 4 35 6 0 12 12 14 27 l3 26 30 -26
c23 -19 35 -23 48 -16 23 13 21 27 -5 50 -14 11 -18 19 -10 20 6 1 18 2 25 3
6 0 12 10 12 21 0 11 8 29 17 39 20 22 16 34 -18 47 -44 16 -68 18 -93 8z"/>
<path d="M3662 4099 c2 -7 17 -14 34 -16 33 -5 23 10 -15 22 -17 5 -22 4 -19
-6z"/>
<path d="M4432 4101 c-21 -13 -10 -46 16 -49 27 -4 40 22 22 43 -14 17 -20 18
-38 6z"/>
<path d="M3745 4070 c3 -5 10 -10 16 -10 5 0 9 5 9 10 0 6 -7 10 -16 10 -8 0
-12 -4 -9 -10z"/>
<path d="M3581 3840 c1 -28 15 -65 21 -55 3 6 -1 24 -8 40 -7 17 -13 23 -13
15z"/>
<path d="M4655 3750 c3 -5 10 -10 16 -10 5 0 9 5 9 10 0 6 -7 10 -16 10 -8 0
-12 -4 -9 -10z"/>
<path d="M3660 3711 c0 -12 29 -35 36 -28 11 10 -5 37 -21 37 -8 0 -15 -4 -15
-9z"/>
<path d="M4939 3596 c-2 -2 -33 -7 -69 -10 -36 -3 -67 -5 -70 -6 -3 0 1 -4 9
-9 8 -6 -7 -11 -45 -16 -70 -8 -97 -21 -158 -75 -26 -22 -65 -44 -89 -50 -23
-6 -48 -13 -55 -15 -19 -7 -9 -29 14 -34 10 -2 30 -12 43 -22 13 -11 40 -19
60 -19 21 0 46 -7 57 -15 10 -8 22 -15 25 -15 3 0 11 25 18 55 l12 55 74 0
c41 0 86 5 102 11 37 15 130 39 148 39 8 0 15 -5 15 -11 0 -22 -34 -37 -70
-32 -19 3 -32 2 -27 -2 10 -11 -22 -45 -43 -45 -10 0 -20 -6 -23 -14 -5 -13
-115 -35 -139 -28 -5 1 -8 -11 -8 -27 0 -37 16 -43 107 -40 88 2 113 12 106
38 -4 15 -1 21 12 21 24 0 83 48 91 73 7 25 43 67 57 67 12 0 67 56 67 69 0
11 -4 13 -50 16 -14 1 -43 12 -65 24 -35 19 -94 28 -106 17z m81 -26 c0 -5 -2
-10 -4 -10 -3 0 -8 5 -11 10 -3 6 -1 10 4 10 6 0 11 -4 11 -10z m-80 -30 c0
-5 -2 -10 -4 -10 -2 0 -12 -3 -22 -7 -16 -6 -17 -5 -4 10 17 19 30 22 30 7z
m-125 -36 c-9 -9 -19 -13 -23 -10 -3 4 0 11 8 16 24 15 33 11 15 -6z m45 -21
c-24 -17 -35 -12 -27 11 4 9 14 12 27 9 l21 -6 -21 -14z m-107 -10 c-7 -2 -21
-2 -30 0 -10 3 -4 5 12 5 17 0 24 -2 18 -5z m-106 -89 c-3 -3 -12 -4 -19 -1
-8 3 -5 6 6 6 11 1 17 -2 13 -5z"/>
<path d="M3935 3390 c-3 -5 -1 -10 4 -10 6 0 11 5 11 10 0 6 -2 10 -4 10 -3 0
-8 -4 -11 -10z"/>
<path d="M3867 3384 c-4 -4 -4 -10 -1 -15 6 -10 34 0 34 12 0 10 -24 12 -33 3z"/>
<path d="M4044 3271 c4 -5 0 -12 -6 -14 -7 -3 0 -6 16 -6 24 -1 27 1 16 14
-13 16 -35 21 -26 6z"/>
<path d="M7481 5191 c-15 -10 -8 -41 9 -41 15 0 25 29 14 40 -5 5 -15 5 -23 1z"/>
<path d="M7430 4753 c-8 -3 -23 -12 -32 -21 -10 -8 -24 -12 -33 -9 -8 4 -15 2
-15 -3 0 -13 47 -13 55 0 3 6 24 10 46 10 28 0 39 4 39 15 0 15 -30 19 -60 8z"/>
<path d="M7356 4672 c-3 -5 3 -16 13 -24 17 -15 19 -14 17 8 -1 23 -19 33 -30
16z"/>
<path d="M7190 4584 c0 -8 5 -12 10 -9 6 4 8 11 5 16 -9 14 -15 11 -15 -7z"/>
<path d="M7115 4440 c-3 -5 1 -10 9 -10 9 0 16 5 16 10 0 6 -4 10 -9 10 -6 0
-13 -4 -16 -10z"/>
<path d="M6310 2310 c0 -5 9 -10 21 -10 11 0 17 5 14 10 -3 6 -13 10 -21 10
-8 0 -14 -4 -14 -10z"/>
<path d="M5728 3063 c-16 -8 -28 -18 -28 -24 0 -13 5 -12 46 16 39 27 27 32
-18 8z"/>
<path d="M4936 2771 c-4 -7 -5 -15 -2 -18 9 -9 19 4 14 18 -4 11 -6 11 -12 0z"/>
<path d="M3460 3123 c0 -12 -6 -24 -12 -26 -7 -3 -8 -6 -3 -6 24 -2 37 16 26
35 -10 18 -10 18 -11 -3z"/>
<path d="M4310 2999 c0 -5 5 -7 10 -4 6 3 10 8 10 11 0 2 -4 4 -10 4 -5 0 -10
-5 -10 -11z"/>
<path d="M4300 2795 c0 -17 25 -53 35 -49 19 8 6 54 -16 54 -11 0 -19 -2 -19
-5z"/>
<path d="M4580 2225 c-14 -16 -10 -18 14 -9 9 3 16 10 16 15 0 14 -16 11 -30
-6z"/>
<path d="M4543 2193 c-7 -2 -13 -9 -13 -14 0 -14 26 -10 40 6 10 12 10 15 -1
14 -8 0 -20 -3 -26 -6z"/>
<path d="M4808 1825 c2 -14 8 -28 13 -31 10 -6 11 2 3 34 -9 30 -22 28 -16 -3z"/>
<path d="M4117 2768 c-7 -25 0 -41 14 -33 12 8 12 55 0 55 -5 0 -11 -10 -14
-22z"/>
<path d="M3556 2135 c-3 -8 -1 -15 4 -15 13 0 22 18 11 24 -5 3 -11 -1 -15 -9z"/>
<path d="M3327 2081 c-10 -4 -18 -11 -18 -16 1 -17 30 -13 47 6 18 21 7 25
-29 10z"/>
<path d="M3296 2035 c4 -8 11 -15 16 -15 6 0 5 6 -2 15 -7 8 -14 15 -16 15 -2
0 -1 -7 2 -15z"/>
<path d="M3277 1872 c-9 -2 -15 -8 -12 -13 8 -12 45 -12 45 0 0 13 -12 18 -33
13z"/>
<path d="M3086 1831 c-3 -5 3 -11 14 -14 13 -3 20 0 20 9 0 15 -26 19 -34 5z"/>
<path d="M3040 1732 c0 -5 7 -9 15 -9 8 0 15 4 15 9 0 4 -7 8 -15 8 -8 0 -15
-4 -15 -8z"/>
<path d="M2958 1403 c7 -3 16 -2 19 1 4 3 -2 6 -13 5 -11 0 -14 -3 -6 -6z"/>
<path d="M2970 1260 c-13 -9 -13 -11 0 -19 17 -12 30 -5 30 15 0 16 -9 18 -30
4z"/>
<path d="M2987 1059 c-4 -16 -10 -19 -28 -14 -18 6 -21 4 -16 -10 4 -9 7 -18
7 -21 0 -2 14 -1 30 3 27 5 30 3 30 -21 0 -17 5 -26 16 -26 8 0 13 4 10 9 -3
5 1 14 9 21 30 25 16 63 -26 73 -22 6 -28 3 -32 -14z"/>
<path d="M3076 985 c4 -8 10 -12 15 -9 11 6 2 24 -11 24 -5 0 -7 -7 -4 -15z"/>
<path d="M2725 910 c3 -5 8 -10 11 -10 2 0 4 5 4 10 0 6 -5 10 -11 10 -5 0 -7
-4 -4 -10z"/>
<path d="M2885 780 c4 -6 11 -8 16 -5 14 9 11 15 -7 15 -8 0 -12 -5 -9 -10z"/>
<path d="M8 6563 c7 -3 16 -2 19 1 4 3 -2 6 -13 5 -11 0 -14 -3 -6 -6z"/>
<path d="M303 6542 c-26 -4 -29 -12 -11 -30 17 -17 68 -15 68 3 0 18 -29 32
-57 27z"/>
<path d="M435 6526 c-17 -12 -17 -13 3 -11 26 2 37 11 24 19 -5 3 -17 -1 -27
-8z"/>
<path d="M1080 6474 c0 -8 5 -12 10 -9 6 4 8 11 5 16 -9 14 -15 11 -15 -7z"/>
<path d="M8669 6443 c-1 -5 -1 -11 0 -15 0 -5 -5 -8 -11 -9 -7 0 -22 -3 -33
-5 -11 -2 -40 -7 -65 -10 -57 -8 -76 -24 -29 -25 18 -1 57 -2 84 -3 28 -1 60
-5 73 -10 21 -7 22 -5 22 38 0 39 -3 46 -20 46 -11 0 -21 -3 -21 -7z"/>
<path d="M177 6390 c-14 -24 -15 -30 -4 -30 7 0 17 3 21 8 7 7 12 8 38 11 11
1 -19 41 -31 41 -4 0 -15 -13 -24 -30z"/>
<path d="M1170 6410 c0 -5 7 -10 15 -10 8 0 15 5 15 10 0 6 -7 10 -15 10 -8 0
-15 -4 -15 -10z"/>
<path d="M590 6395 c0 -8 5 -15 10 -15 6 0 10 7 10 15 0 8 -4 15 -10 15 -5 0
-10 -7 -10 -15z"/>
<path d="M1 6385 c0 -11 8 -26 20 -33 14 -9 18 -19 14 -32 -4 -14 -2 -20 9
-20 23 0 22 78 0 87 -9 3 -20 0 -24 -7 -6 -10 -9 -8 -13 6 -4 18 -5 18 -6 -1z"/>
<path d="M471 6381 c-8 -5 -9 -11 -3 -15 5 -3 12 1 16 9 6 17 6 18 -13 6z"/>
<path d="M1276 6375 c4 -9 13 -15 21 -13 23 5 20 23 -4 26 -18 3 -21 0 -17
-13z"/>
<path d="M5030 6386 c0 -2 7 -6 15 -10 8 -3 15 -1 15 4 0 6 -7 10 -15 10 -8 0
-15 -2 -15 -4z"/>
<path d="M5005 6360 c-3 -5 -2 -10 4 -10 5 0 13 5 16 10 3 6 2 10 -4 10 -5 0
-13 -4 -16 -10z"/>
<path d="M8569 6343 c-19 -5 -32 -40 -18 -49 13 -7 29 4 29 22 0 8 9 14 21 14
11 0 17 5 14 10 -6 10 -17 11 -46 3z"/>
<path d="M320 6328 c0 -7 4 -19 9 -27 11 -17 25 3 17 24 -7 18 -26 20 -26 3z"/>
<path d="M8680 6280 c-24 -24 -29 -60 -5 -40 8 6 19 9 25 5 6 -4 10 6 10 24 0
36 -3 38 -30 11z"/>
<path d="M97 6274 c4 -10 13 -14 27 -10 11 3 27 6 34 6 7 0 10 5 7 10 -3 6
-22 10 -40 10 -27 0 -33 -3 -28 -16z"/>
<path d="M445 6280 c27 -12 35 -12 35 0 0 6 -12 10 -27 9 -25 0 -26 -1 -8 -9z"/>
<path d="M759 6268 c10 -27 41 -37 41 -14 0 8 -9 20 -19 26 -28 15 -31 13 -22
-12z"/>
<path d="M815 6260 c3 -5 8 -10 11 -10 2 0 4 5 4 10 0 6 -5 10 -11 10 -5 0 -7
-4 -4 -10z"/>
<path d="M277 6203 c-11 -11 -8 -25 4 -17 6 3 15 1 19 -7 11 -17 163 -22 157
-5 -2 6 -21 17 -43 24 -33 11 -43 11 -65 -2 -24 -14 -28 -14 -39 -1 -14 16
-23 19 -33 8z"/>
<path d="M8686 6194 c-4 -10 -13 -13 -27 -9 -12 4 -31 2 -43 -4 -11 -6 -33
-15 -48 -21 -16 -5 -28 -13 -28 -18 0 -9 29 -26 73 -42 23 -8 27 -7 27 8 0 14
2 15 10 2 11 -18 -4 -38 -33 -42 -20 -3 -18 -5 12 -20 18 -10 37 -15 42 -12
17 10 21 -27 5 -45 -9 -10 -16 -23 -16 -29 0 -8 -19 -12 -52 -12 -58 0 -85
-11 -73 -29 19 -31 85 -34 85 -5 0 18 14 18 30 -1 6 -8 8 -20 4 -27 -13 -20
-15 -48 -4 -48 6 0 10 -7 10 -15 0 -18 9 -19 33 -1 14 11 17 29 17 109 0 53
-4 99 -10 102 -7 4 -7 12 0 25 12 23 13 137 1 144 -5 3 -12 -1 -15 -10z m-1
-72 c0 -12 -4 -22 -10 -22 -5 0 -10 3 -10 8 0 4 -3 12 -7 18 -4 6 -4 14 -1 18
12 12 28 0 28 -22z"/>
<path d="M172 6188 c-17 -23 -23 -56 -11 -64 8 -5 9 -3 4 6 -5 8 -3 11 6 8 8
-3 13 -12 11 -19 -3 -11 -1 -12 9 -1 7 6 21 12 30 12 30 0 30 28 0 50 -34 24
-36 24 -49 8z"/>
<path d="M5280 6160 c-13 -8 -12 -10 3 -10 9 0 17 5 17 10 0 12 -1 12 -20 0z"/>
<path d="M725 6130 c-9 -15 -1 -23 21 -18 15 3 16 4 1 16 -11 9 -17 10 -22 2z"/>
<path d="M210 6111 c0 -6 5 -13 10 -16 6 -3 10 1 10 9 0 9 -4 16 -10 16 -5 0
-10 -4 -10 -9z"/>
<path d="M0 6087 c0 -28 22 -41 39 -24 13 13 15 37 2 37 -5 0 -16 3 -25 6 -12
5 -16 0 -16 -19z"/>
<path d="M366 6103 c-11 -11 -6 -23 8 -23 8 0 17 4 20 9 7 10 -19 23 -28 14z"/>
<path d="M5298 6103 c7 -3 16 -2 19 1 4 3 -2 6 -13 5 -11 0 -14 -3 -6 -6z"/>
<path d="M770 6090 c0 -5 5 -10 10 -10 6 0 10 5 10 10 0 6 -4 10 -10 10 -5 0
-10 -4 -10 -10z"/>
<path d="M3600 6081 c-13 -26 -13 -31 5 -31 8 0 15 4 15 9 0 5 3 16 6 25 9 23
-13 20 -26 -3z"/>
<path d="M65 6071 c-3 -5 -1 -12 5 -16 5 -3 10 1 10 9 0 18 -6 21 -15 7z"/>
<path d="M180 6065 c0 -8 5 -15 10 -15 6 0 10 7 10 15 0 8 -4 15 -10 15 -5 0
-10 -7 -10 -15z"/>
<path d="M225 6060 c-3 -5 -1 -10 4 -10 6 0 11 5 11 10 0 6 -2 10 -4 10 -3 0
-8 -4 -11 -10z"/>
<path d="M8590 6030 c0 -5 6 -10 14 -10 8 0 18 5 21 10 3 6 -3 10 -14 10 -12
0 -21 -4 -21 -10z"/>
<path d="M8160 5929 c0 -5 5 -7 10 -4 6 3 10 8 10 11 0 2 -4 4 -10 4 -5 0 -10
-5 -10 -11z"/>
<path d="M8180 5910 c0 -5 7 -10 15 -10 8 0 15 5 15 10 0 6 -7 10 -15 10 -8 0
-15 -4 -15 -10z"/>
<path d="M8086 5883 c-8 -8 27 -33 36 -27 5 3 8 11 8 17 0 13 -33 20 -44 10z"/>
<path d="M8247 5854 c-14 -14 -7 -25 13 -22 12 2 21 8 21 13 0 12 -24 18 -34
9z"/>
<path d="M2678 5819 c18 -19 15 -29 -11 -29 -23 0 -47 -17 -47 -33 0 -4 17 -7
38 -5 35 3 37 5 37 37 0 22 -5 36 -15 39 -12 4 -13 2 -2 -9z"/>
<path d="M2846 5801 c-10 -16 34 -38 85 -43 34 -4 51 -1 67 13 12 9 22 19 22
21 0 2 -21 3 -47 4 -27 0 -64 3 -85 7 -22 5 -39 4 -42 -2z"/>
<path d="M3040 5800 c0 -5 4 -10 9 -10 6 0 13 5 16 10 3 6 -1 10 -9 10 -9 0
-16 -4 -16 -10z"/>
<path d="M8579 5785 c-1 -3 -2 -8 -3 -12 -1 -5 -5 -14 -10 -21 -10 -17 -9 -18
37 -26 33 -6 37 -5 37 13 0 13 -12 27 -30 36 -16 9 -31 13 -31 10z"/>
<path d="M925 5760 c-3 -5 -1 -10 4 -10 6 0 11 5 11 10 0 6 -2 10 -4 10 -3 0
-8 -4 -11 -10z"/>
<path d="M956 5754 c-4 -9 1 -14 14 -14 23 0 27 15 6 23 -8 3 -17 -1 -20 -9z"/>
<path d="M8460 5740 c0 -5 7 -10 15 -10 8 0 15 5 15 10 0 6 -7 10 -15 10 -8 0
-15 -4 -15 -10z"/>
<path d="M8288 5693 c7 -3 16 -2 19 1 4 3 -2 6 -13 5 -11 0 -14 -3 -6 -6z"/>
<path d="M8160 5674 c0 -11 6 -14 23 -9 38 12 43 25 9 25 -22 0 -32 -5 -32
-16z"/>
<path d="M2270 5620 c-11 -7 -5 -10 23 -10 20 0 37 4 37 8 0 11 -43 13 -60 2z"/>
<path d="M8610 5595 c-7 -9 -8 -15 -2 -15 5 0 12 7 16 15 3 8 4 15 2 15 -2 0
-9 -7 -16 -15z"/>
<path d="M938 5593 c6 -2 18 -2 25 0 6 3 1 5 -13 5 -14 0 -19 -2 -12 -5z"/>
<path d="M2149 5567 c-1 -1 -3 -14 -4 -29 -4 -32 23 -47 42 -23 15 21 7 42
-18 48 -10 3 -20 4 -20 4z"/>
<path d="M2385 5560 c-3 -5 1 -10 10 -10 9 0 13 5 10 10 -3 6 -8 10 -10 10 -2
0 -7 -4 -10 -10z"/>
<path d="M2262 5548 c3 -7 13 -15 24 -16 10 -2 25 -11 31 -20 7 -8 15 -13 18
-10 8 8 -46 58 -62 58 -8 0 -13 -6 -11 -12z"/>
<path d="M8565 5530 c3 -5 8 -10 11 -10 2 0 4 5 4 10 0 6 -5 10 -11 10 -5 0
-7 -4 -4 -10z"/>
<path d="M2357 5523 c-4 -3 -7 -11 -7 -17 0 -6 5 -5 12 2 6 6 9 14 7 17 -3 3
-9 2 -12 -2z"/>
<path d="M8675 5471 c-3 -5 -1 -12 5 -16 12 -7 30 2 30 16 0 12 -27 12 -35 0z"/>
<path d="M2240 5400 c0 -5 4 -10 9 -10 6 0 13 5 16 10 3 6 -1 10 -9 10 -9 0
-16 -4 -16 -10z"/>
<path d="M2410 5400 c19 -13 30 -13 30 0 0 6 -10 10 -22 10 -19 0 -20 -2 -8
-10z"/>
<path d="M2745 5320 c-7 -12 -7 -12 27 -14 15 -1 30 4 32 11 6 16 -49 18 -59
3z"/>
<path d="M662 5198 c-15 -15 4 -52 24 -44 8 3 22 -3 31 -14 9 -10 20 -17 25
-14 4 3 8 -4 8 -15 0 -12 -9 -26 -20 -33 -27 -17 -25 -36 5 -44 15 -4 25 -13
25 -24 0 -13 6 -16 25 -12 31 5 32 20 3 31 -20 7 -20 8 9 14 20 4 32 13 37 29
11 41 6 95 -9 108 -15 12 -76 17 -93 6 -5 -3 -18 1 -28 9 -23 18 -27 18 -42 3z"/>
<path d="M8174 5189 c-11 -18 11 -32 25 -16 9 12 8 16 -3 20 -9 4 -18 1 -22
-4z"/>
<path d="M440 5180 c0 -5 5 -10 11 -10 5 0 7 5 4 10 -3 6 -8 10 -11 10 -2 0
-4 -4 -4 -10z"/>
<path d="M540 5016 c0 -2 7 -9 15 -16 12 -10 15 -10 15 4 0 9 -7 16 -15 16 -8
0 -15 -2 -15 -4z"/>
<path d="M8400 4989 c0 -5 5 -7 10 -4 6 3 10 8 10 11 0 2 -4 4 -10 4 -5 0 -10
-5 -10 -11z"/>
<path d="M240 4971 c0 -15 16 -22 35 -15 13 5 14 8 3 15 -18 12 -38 11 -38 0z"/>
<path d="M330 4960 c0 -5 6 -10 14 -10 8 0 18 5 21 10 3 6 -3 10 -14 10 -12 0
-21 -4 -21 -10z"/>
<path d="M420 4966 c0 -2 9 -6 20 -9 11 -3 20 -1 20 4 0 5 -9 9 -20 9 -11 0
-20 -2 -20 -4z"/>
<path d="M770 4910 c0 -6 -16 -8 -40 -5 -42 5 -56 -9 -18 -18 12 -4 19 -10 15
-14 -5 -4 14 -17 40 -30 26 -12 52 -18 57 -13 11 11 -24 90 -41 90 -7 0 -13
-5 -13 -10z"/>
<path d="M289 4889 c-13 -10 -20 -21 -16 -26 11 -10 79 -4 94 9 7 5 22 6 35 3
21 -7 21 -7 5 10 -17 16 -19 16 -38 -1 -16 -14 -19 -15 -14 -2 9 24 -38 29
-66 7z"/>
<path d="M520 4830 c0 -5 4 -10 9 -10 6 0 13 5 16 10 3 6 -1 10 -9 10 -9 0
-16 -4 -16 -10z"/>
<path d="M810 4790 c0 -11 14 -33 32 -49 l32 -29 18 23 c21 27 22 35 7 35 -6
0 -22 9 -36 20 -33 26 -53 25 -53 0z"/>
<path d="M450 4775 c-7 -9 -6 -16 5 -25 8 -7 15 -21 15 -32 0 -24 18 -14 30
18 7 17 17 24 35 24 22 0 37 18 18 21 -57 7 -94 5 -103 -6z"/>
<path d="M430 4700 c0 -5 4 -10 9 -10 6 0 13 5 16 10 3 6 -1 10 -9 10 -9 0
-16 -4 -16 -10z"/>
<path d="M926 4683 c6 -5 13 -16 17 -25 8 -22 26 -23 33 -3 4 8 18 15 32 15
40 0 22 7 -38 14 -30 4 -50 3 -44 -1z"/>
<path d="M55 4660 c4 -6 11 -8 16 -5 14 9 11 15 -7 15 -8 0 -12 -5 -9 -10z"/>
<path d="M1170 4623 c1 -20 19 -35 35 -29 14 5 15 9 5 21 -13 16 -40 21 -40 8z"/>
<path d="M116 4450 c17 -17 28 -20 64 -14 39 6 41 8 25 21 -11 7 -39 13 -64
13 l-45 0 20 -20z"/>
<path d="M75 4420 c3 -5 13 -10 21 -10 8 0 12 5 9 10 -3 6 -13 10 -21 10 -8 0
-12 -4 -9 -10z"/>
<path d="M12 4380 c-20 -33 -10 -41 22 -17 15 11 16 15 4 25 -11 8 -17 7 -26
-8z"/>
<path d="M1180 4369 c0 -5 5 -7 10 -4 6 3 10 8 10 11 0 2 -4 4 -10 4 -5 0 -10
-5 -10 -11z"/>
<path d="M965 4320 c-4 -6 7 -10 25 -10 18 0 29 4 25 10 -3 6 -15 10 -25 10
-10 0 -22 -4 -25 -10z"/>
<path d="M912 4209 c2 -6 8 -10 13 -10 5 0 11 4 13 10 2 6 -4 11 -13 11 -9 0
-15 -5 -13 -11z"/>
<path d="M872 4098 c-14 -14 -16 -28 -3 -28 9 0 24 30 18 36 -2 2 -9 -2 -15
-8z"/>
<path d="M1421 3985 c-52 -13 -97 -28 -100 -32 -3 -5 -25 -19 -49 -31 -32 -17
-48 -20 -62 -12 -51 28 -121 -8 -119 -61 2 -77 76 -203 148 -254 l40 -27 -29
-25 c-17 -14 -30 -30 -30 -37 0 -16 -81 -147 -107 -173 -12 -12 -34 -43 -49
-69 -16 -27 -58 -85 -94 -130 -36 -44 -81 -103 -100 -130 -61 -86 -140 -204
-140 -208 0 -2 -20 -39 -45 -82 -25 -44 -45 -87 -45 -97 0 -10 -18 -37 -40
-59 -22 -23 -40 -46 -40 -53 0 -6 -16 -30 -35 -52 -19 -23 -35 -46 -35 -52 0
-6 -16 -29 -36 -51 -20 -22 -47 -69 -60 -103 -12 -34 -38 -91 -57 -127 -61
-113 -115 -228 -154 -326 -20 -52 -41 -93 -47 -91 -6 2 -16 39 -23 83 -11 74
-49 174 -73 189 -5 3 -10 14 -10 23 0 9 -7 26 -15 36 -13 18 -15 -102 -15
-1007 l0 -1027 254 0 253 0 47 26 c57 32 71 55 71 119 l0 50 35 -3 c19 -2 55
4 80 13 25 9 55 18 68 20 31 3 44 18 43 46 -5 122 -7 129 -26 144 l-20 15 20
15 c11 9 28 14 37 12 31 -9 88 71 88 124 0 13 -7 19 -22 20 -14 1 -7 5 16 10
22 5 48 16 57 25 9 8 21 14 25 12 17 -6 64 40 79 76 11 25 23 37 43 42 81 18
99 36 67 68 -13 13 -14 20 -5 30 15 19 22 100 10 130 -10 27 -40 36 -84 24
-20 -5 -35 -3 -45 5 -28 23 -72 37 -97 31 -13 -3 -24 -10 -24 -14 0 -4 -26
-10 -57 -14 -32 -4 -85 -16 -117 -28 -44 -15 -72 -19 -109 -14 -49 5 -82 28
-52 34 9 2 15 15 15 35 0 24 3 28 10 17 5 -8 12 -11 17 -7 13 13 -20 28 -50
22 -17 -3 -34 2 -46 12 -18 15 -18 18 -3 49 17 33 52 47 52 22 1 -16 29 32 30
50 0 6 -10 12 -23 12 -23 0 -47 17 -47 32 0 4 9 8 20 8 13 0 20 7 20 20 0 18
-4 20 -34 15 -28 -6 -36 -3 -45 14 -11 20 -10 21 56 21 37 0 104 7 149 15 44
8 101 15 125 16 24 1 62 10 83 21 22 10 46 18 54 18 7 0 23 5 34 11 20 11 20
13 5 24 -10 7 -18 29 -20 51 -3 37 -31 104 -43 104 -5 0 0 -58 9 -104 1 -6 -9
-12 -23 -14 -36 -5 -110 -33 -110 -43 0 -4 -35 -10 -77 -14 -43 -4 -84 -12
-90 -17 -7 -6 -24 -7 -38 -4 -14 3 -34 1 -44 -6 -16 -10 -23 -9 -40 6 -15 13
-24 15 -39 7 -35 -18 -59 -3 -65 41 -3 23 -10 44 -15 47 -11 7 -10 120 1 139
4 6 3 13 -2 17 -15 9 -52 -81 -58 -140 -5 -51 -4 -55 31 -91 20 -20 36 -45 36
-56 0 -17 -9 -18 -95 -17 -83 1 -97 4 -106 20 -5 11 -7 25 -3 31 4 6 8 21 10
32 1 12 8 46 15 76 6 30 15 80 20 110 16 115 31 176 45 198 9 13 18 47 20 75
3 36 12 60 28 77 26 28 76 148 76 181 0 13 19 40 46 64 66 62 81 73 122 96 20
12 44 27 53 35 8 8 33 14 55 14 70 0 83 8 82 46 -1 20 -8 39 -17 44 -15 8 -14
12 2 40 9 18 20 50 24 73 4 29 17 54 42 80 54 58 77 66 189 69 95 3 102 2 123
-20 18 -20 28 -23 58 -18 20 4 59 6 86 6 134 0 160 2 165 8 3 4 17 13 33 19
15 7 27 17 27 23 0 6 11 21 24 33 16 14 30 45 41 87 9 36 27 87 42 115 22 42
25 57 19 107 -10 98 -65 180 -97 142 -7 -8 -18 -13 -26 -10 -16 7 -33 -32 -33
-74 0 -20 -9 -35 -31 -52 -17 -13 -43 -34 -59 -48 -15 -14 -61 -42 -101 -62
-72 -36 -77 -37 -201 -40 -69 -2 -129 0 -133 4 -9 9 13 76 28 85 19 13 93 105
110 140 10 18 17 41 17 52 0 12 30 56 68 98 81 94 117 148 127 192 5 26 10 31
23 24 34 -16 135 -8 187 15 107 49 102 44 124 112 13 41 7 48 -76 85 l-53 24
0 62 c0 43 5 68 16 80 24 26 10 76 -26 94 -34 18 -23 19 -139 -10z m-496
-1145 c-3 -5 -11 -10 -16 -10 -6 0 -7 5 -4 10 3 6 11 10 16 10 6 0 7 -4 4 -10z
m85 -1926 c0 -5 -50 6 -64 14 -4 2 -2 8 5 12 11 7 59 -15 59 -26z m-345 -93
c7 -12 -12 -24 -25 -16 -11 7 -4 25 10 25 5 0 11 -4 15 -9z m379 -37 c4 -10 1
-14 -6 -12 -15 5 -23 28 -10 28 5 0 13 -7 16 -16z m-194 -40 c0 -8 -4 -12 -10
-9 -5 3 -10 10 -10 16 0 5 5 9 10 9 6 0 10 -7 10 -16z m171 1 c0 -13 -41 -19
-41 -7 0 11 20 22 33 18 5 -1 8 -6 8 -11z m-451 -45 c0 -5 -4 -10 -10 -10 -5
0 -10 5 -10 10 0 6 5 10 10 10 6 0 10 -4 10 -10z m140 -31 c0 -5 4 -8 9 -5 5
3 14 -1 21 -9 13 -16 7 -18 -27 -9 -22 6 -33 34 -13 34 6 0 10 -5 10 -11z
m-73 -54 c-4 -8 -11 -15 -17 -15 -14 0 -13 27 3 33 16 6 21 1 14 -18z m83
-185 c0 -11 -6 -20 -14 -20 -21 0 -46 11 -46 20 0 7 10 11 53 19 4 0 7 -8 7
-19z"/>
<path d="M778 3945 c-16 -13 -28 -27 -28 -30 0 -12 28 -3 44 14 28 30 14 42
-16 16z"/>
<path d="M2062 3457 c-11 -13 -20 -83 -12 -91 3 -2 24 -7 48 -11 38 -6 42 -5
42 14 0 12 -6 21 -14 21 -19 0 -40 26 -26 35 7 4 7 12 0 26 -12 22 -23 24 -38
6z"/>
<path d="M1468 3273 c17 -2 32 -8 32 -12 0 -5 8 -11 18 -15 9 -3 27 -10 40
-16 16 -7 22 -6 22 3 0 20 -66 47 -108 45 -37 -1 -37 -1 -4 -5z"/>
<path d="M1388 3258 c9 -9 15 -9 24 0 9 9 7 12 -12 12 -19 0 -21 -3 -12 -12z"/>
<path d="M1273 3227 c-23 -24 -31 -39 -26 -55 8 -34 29 -26 62 24 47 68 21 90
-36 31z"/>
<path d="M1677 2662 c-13 -14 -17 -39 -17 -108 -1 -109 -11 -159 -39 -182 -27
-21 -43 -85 -31 -118 10 -25 49 -40 76 -30 9 4 28 -1 42 -10 58 -38 227 17
300 98 22 24 51 103 61 168 5 30 10 60 11 65 7 34 -2 54 -30 64 -37 12 -54 7
-75 -25 -8 -13 -25 -24 -36 -24 -28 0 -97 42 -139 85 -27 27 -42 35 -70 35
-23 0 -43 -7 -53 -18z"/>
<path d="M2560 2479 c0 -5 5 -7 10 -4 6 3 10 8 10 11 0 2 -4 4 -10 4 -5 0 -10
-5 -10 -11z"/>
<path d="M2635 2410 c-3 -5 -1 -10 4 -10 6 0 11 5 11 10 0 6 -2 10 -4 10 -3 0
-8 -4 -11 -10z"/>
<path d="M2678 2345 c2 -19 8 -38 13 -41 5 -3 9 -15 9 -27 0 -20 0 -20 15 -1
19 25 19 54 0 54 -8 0 -15 7 -15 15 0 8 6 15 13 15 8 0 7 4 -3 10 -27 18 -36
11 -32 -25z"/>
<path d="M2628 2363 c7 -3 16 -2 19 1 4 3 -2 6 -13 5 -11 0 -14 -3 -6 -6z"/>
<path d="M2815 2340 c-3 -5 1 -10 9 -10 9 0 16 5 16 10 0 6 -4 10 -9 10 -6 0
-13 -4 -16 -10z"/>
<path d="M2850 2259 c0 -5 5 -7 10 -4 6 3 10 8 10 11 0 2 -4 4 -10 4 -5 0 -10
-5 -10 -11z"/>
<path d="M2980 2209 c0 -5 5 -7 10 -4 6 3 10 8 10 11 0 2 -4 4 -10 4 -5 0 -10
-5 -10 -11z"/>
<path d="M2885 2141 c-3 -6 -3 -11 2 -12 4 0 -5 -5 -22 -10 -16 -4 -32 -5 -35
0 -3 4 -15 10 -27 13 -20 5 -21 3 -13 -13 22 -39 136 -33 128 8 -4 20 -24 28
-33 14z"/>
<path d="M1374 1924 c3 -9 6 -18 6 -20 0 -2 9 -4 20 -4 l20 0 -20 20 c-24 24
-34 26 -26 4z"/>
<path d="M557 1854 c-4 -4 -7 -14 -7 -23 0 -11 3 -12 11 -4 6 6 10 16 7 23 -2
6 -7 8 -11 4z"/>
<path d="M1026 1831 c-3 -5 -3 -16 0 -24 3 -9 -1 -31 -9 -49 -22 -49 -27 -68
-19 -68 29 2 68 129 44 144 -6 3 -13 2 -16 -3z"/>
<path d="M510 1791 c-12 -24 -13 -51 -2 -51 9 0 32 44 32 60 0 17 -19 11 -30
-9z"/>
<path d="M1431 1659 c-18 -52 -14 -143 7 -162 21 -19 48 -22 57 -7 4 6 10 8
14 5 5 -2 32 2 60 11 57 17 71 40 19 30 -18 -3 -57 -8 -85 -12 -51 -6 -53 -6
-63 22 -9 22 -8 43 3 86 16 61 7 80 -12 27z"/>
<path d="M1691 1609 c-24 -23 -23 -33 2 -23 15 5 31 33 24 40 -2 2 -14 -6 -26
-17z"/>
<path d="M1635 1560 c-3 -5 1 -10 9 -10 9 0 16 5 16 10 0 6 -4 10 -9 10 -6 0
-13 -4 -16 -10z"/>
<path d="M465 1530 c3 -5 10 -10 16 -10 5 0 9 5 9 10 0 6 -7 10 -16 10 -8 0
-12 -4 -9 -10z"/>
<path d="M5276 1461 c-3 -5 0 -14 8 -20 10 -8 16 -8 25 2 6 8 8 17 4 20 -9 10
-31 9 -37 -2z"/>
<path d="M498 1433 c7 -3 16 -2 19 1 4 3 -2 6 -13 5 -11 0 -14 -3 -6 -6z"/>
<path d="M1030 1376 c0 -19 4 -24 15 -19 18 6 16 34 -2 41 -8 2 -13 -6 -13
-22z"/>
<path d="M5296 1324 c-4 -10 -1 -14 6 -12 15 5 23 28 10 28 -5 0 -13 -7 -16
-16z"/>
<path d="M1060 1310 c6 -11 15 -20 20 -20 6 0 5 9 -2 20 -7 11 -16 20 -21 20
-4 0 -3 -9 3 -20z"/>
<path d="M710 1240 c0 -5 7 -10 15 -10 8 0 15 5 15 10 0 6 -7 10 -15 10 -8 0
-15 -4 -15 -10z"/>
<path d="M5292 1185 c0 -16 2 -22 5 -12 2 9 2 23 0 30 -3 6 -5 -1 -5 -18z"/>
<path d="M1120 1098 c0 -19 2 -20 10 -8 13 19 13 30 0 30 -5 0 -10 -10 -10
-22z"/>
<path d="M692 1071 c2 -7 7 -12 11 -12 12 1 9 15 -3 20 -7 2 -11 -2 -8 -8z"/>
<path d="M5780 1025 c0 -13 4 -14 20 -5 11 6 20 13 20 15 0 3 -9 5 -20 5 -11
0 -20 -7 -20 -15z"/>
<path d="M5622 991 c4 -13 18 -16 19 -4 0 4 -5 9 -11 12 -7 2 -11 -2 -8 -8z"/>
<path d="M5796 991 c-10 -16 5 -41 25 -41 21 0 25 20 7 38 -14 14 -25 15 -32
3z"/>
<path d="M8702 920 c0 -14 2 -19 5 -12 2 6 2 18 0 25 -3 6 -5 1 -5 -13z"/>
<path d="M5474 903 c3 -8 6 -17 6 -19 0 -3 9 0 20 6 28 15 25 28 -6 28 -18 0
-24 -5 -20 -15z"/>
<path d="M5523 803 c-38 -7 -21 -53 19 -53 20 0 24 16 6 23 -10 3 -10 7 1 20
7 10 10 16 5 16 -5 -1 -19 -4 -31 -6z"/>
<path d="M1730 720 c0 -5 4 -10 9 -10 6 0 13 5 16 10 3 6 -1 10 -9 10 -9 0
-16 -4 -16 -10z"/>
<path d="M8600 700 c0 -5 5 -10 11 -10 5 0 7 5 4 10 -3 6 -8 10 -11 10 -2 0
-4 -4 -4 -10z"/>
<path d="M1677 650 c10 -11 21 -20 25 -20 15 0 8 28 -8 34 -28 11 -34 6 -17
-14z"/>
<path d="M1299 653 c-10 -2 -19 -13 -22 -23 -3 -13 -16 -20 -38 -22 -20 -2
-33 -8 -32 -15 3 -13 -24 -83 -32 -83 -2 0 -20 9 -39 19 -30 18 -38 18 -72 6
-22 -8 -34 -14 -27 -15 7 0 1 -11 -13 -26 l-26 -25 26 -22 c14 -12 34 -42 45
-67 11 -25 42 -67 70 -93 58 -55 69 -81 47 -106 -9 -10 -16 -25 -16 -33 0 -9
-7 -18 -15 -22 -8 -3 -23 -22 -32 -43 -9 -21 -26 -48 -37 -61 l-19 -22 189 0
189 0 -2 52 c-2 56 -12 68 -58 68 -57 1 -114 6 -119 10 -3 3 10 16 29 28 28
20 37 22 55 12 34 -18 50 4 22 30 -31 29 -28 56 8 75 17 9 30 20 30 26 0 5 21
30 46 54 64 63 60 73 -41 112 -48 18 -50 20 -47 54 2 24 -5 52 -23 84 -29 56
-25 52 -46 48z m-6 -446 c3 -8 -3 -14 -16 -14 -11 -1 -24 -8 -28 -15 -7 -10
-9 -8 -9 5 0 10 10 22 23 27 12 5 23 9 23 9 1 1 4 -5 7 -12z m-56 -79 c-3 -8
-6 -5 -6 6 -1 11 2 17 5 13 3 -3 4 -12 1 -19z"/>
<path d="M5545 630 c3 -5 8 -10 11 -10 2 0 4 5 4 10 0 6 -5 10 -11 10 -5 0 -7
-4 -4 -10z"/>
<path d="M8648 588 c9 -9 15 -9 24 0 9 9 7 12 -12 12 -19 0 -21 -3 -12 -12z"/>
<path d="M5700 490 c0 -5 5 -10 10 -10 6 0 10 5 10 10 0 6 -4 10 -10 10 -5 0
-10 -4 -10 -10z"/>
<path d="M5758 413 c-20 -5 -23 -18 -8 -28 13 -8 52 14 45 26 -6 9 -9 10 -37
2z"/>
<path d="M6739 348 c23 -37 30 -41 49 -29 11 6 8 14 -11 35 -13 14 -32 26 -42
26 -15 0 -15 -3 4 -32z"/>
<path d="M5750 355 c0 -8 4 -15 10 -15 5 0 7 7 4 15 -4 8 -8 15 -10 15 -2 0
-4 -7 -4 -15z"/>
<path d="M5591 324 c0 -11 3 -14 6 -6 3 7 2 16 -1 19 -3 4 -6 -2 -5 -13z"/>
<path d="M5620 301 c5 -11 10 -29 10 -40 0 -24 18 -37 32 -23 12 12 3 46 -18
67 -22 22 -37 19 -24 -4z"/>
<path d="M5650 200 c0 -5 12 -10 26 -10 14 0 23 4 19 10 -3 6 -15 10 -26 10
-10 0 -19 -4 -19 -10z"/>
<path d="M1591 156 c-8 -9 -11 -19 -7 -23 9 -9 29 13 24 27 -2 8 -8 7 -17 -4z"/>
<path d="M1480 125 c-17 -20 5 -20 40 0 l25 14 -26 1 c-15 0 -32 -7 -39 -15z"/>
<path d="M956 95 c-6 -18 2 -45 15 -45 4 0 6 7 3 15 -4 10 4 20 27 30 l34 14
-36 1 c-24 0 -39 -5 -43 -15z"/>
<path d="M8560 90 c0 -5 7 -10 16 -10 8 0 12 5 9 10 -3 6 -10 10 -16 10 -5 0
-9 -4 -9 -10z"/>
<path d="M6825 81 c-3 -5 0 -13 6 -16 5 -4 8 -13 5 -21 -3 -8 1 -14 10 -14 11
0 14 6 10 16 -3 9 -6 22 -6 30 0 16 -16 19 -25 5z"/>
<path d="M750 10 l-35 -7 38 -2 c20 0 37 4 37 9 0 6 -1 9 -2 9 -2 -1 -19 -5
-38 -9z"/>
<path d="M920 10 c0 -5 5 -10 11 -10 5 0 7 5 4 10 -3 6 -8 10 -11 10 -2 0 -4
-4 -4 -10z"/>
</g>
</svg>
